<svg width="41" height="110" viewBox="0 0 41 110" fill="none" xmlns="http://www.w3.org/2000/svg">
<g clip-path="url(#clip0_55_65)">
<path d="M0.0503731 18.5773C0.100739 15.3464 2.16586 13.1757 5.38944 13.0243C8.15971 12.9233 10.93 12.9738 13.7002 12.9738C15.4631 12.9738 16.672 13.832 16.7224 15.6493C16.7727 17.6181 15.5135 18.5268 13.7002 18.5773C11.8366 18.6783 10.0233 18.6278 8.15971 18.5773C6.34644 18.5268 5.59092 19.385 5.64128 21.2023C5.69165 24.3827 5.69165 27.6135 5.64128 30.7939C5.59092 32.5608 6.34644 33.1161 8.05897 33.5704C10.1744 34.1257 12.5418 34.9334 14.0025 36.4479C15.4632 37.9118 15.8157 40.4359 16.8231 42.4047C17.226 43.2629 17.9816 44.424 18.6867 44.525C20.2482 44.7269 20.5504 43.4144 20.3993 42.1018C20.2985 41.0922 20.1978 40.0826 19.8956 39.1234C18.5356 34.4286 15.2113 31.6016 10.6781 30.0872C12.1892 29.3804 13.5491 28.7746 15.0602 28.0679C17.7297 30.0872 20.6511 30.491 23.6732 28.3203C23.9251 28.1184 24.6302 28.2193 24.9828 28.4213C28.0049 30.491 30.8256 29.9862 32.8907 28.4213C35.9128 29.027 38.3305 29.4814 40.9496 29.9862C41.1007 33.5199 41.1511 37.3565 38.7838 40.7893C36.1646 44.5755 32.4373 46.3423 28.0553 46.7462C28.0553 48.0082 28.0553 49.0683 28.0553 50.3304C29.9189 50.078 31.5811 49.8761 33.3944 49.6236C33.3944 69.8164 33.3944 89.8072 33.3944 110C24.6302 110 16.1683 110 7.65602 110C7.65602 89.8072 7.65602 69.7154 7.65602 49.6236C9.51966 49.8761 11.1315 50.078 12.844 50.2799C12.844 48.8664 12.844 47.7558 12.844 46.6957C4.28133 45.4841 0.0503731 40.6379 0.0503731 32.2074C3.8147e-06 27.664 -0.0503654 23.1207 0.0503731 18.5773ZM18.8378 98.793C19.9459 98.793 21.0037 98.793 22.1622 98.793C22.1622 97.6319 22.1622 96.5718 22.1622 95.2593C20.9533 95.2593 19.9963 95.2593 18.8378 95.2593C18.8378 96.4708 18.8378 97.5309 18.8378 98.793ZM11.6855 73.3501C11.3329 74.1073 11.3833 75.3694 11.7862 76.1266C13.9521 80.67 16.1683 85.1629 18.4853 89.6558C18.8378 90.3625 19.7948 91.3722 20.3993 91.2712C21.2052 91.1702 22.1118 90.312 22.5147 89.5548C24.8317 85.1629 27.0479 80.771 29.113 76.2781C29.516 75.3694 29.5663 73.9559 29.113 73.0472C27.0479 68.5543 24.7813 64.1624 22.5147 59.7705C22.1118 58.9628 21.3563 58.357 20.7518 57.6503C20.3993 57.4988 20.0467 57.3474 19.6437 57.1959C19.2912 57.9532 18.9386 58.7104 18.5356 59.4171C16.269 64.011 13.9017 68.6048 11.6855 73.3501Z" fill="#BF9456"/>
<path d="M28.9115 25.9982C26.7961 26.0487 26.0405 24.5847 26.0405 22.6664C26.0405 20.0414 26.0405 17.4668 26.0405 14.8417C26.0405 12.3176 26.0405 9.79354 26.0405 7.26945C26.0405 5.25017 26.6953 3.63475 28.9619 3.68523C31.027 3.73572 31.7322 5.30065 31.7322 7.16848C31.7322 12.2672 31.7322 17.4163 31.7322 22.515C31.6818 24.4333 31.027 25.9477 28.9115 25.9982Z" fill="#BF9456"/>
<path d="M20.0971 25.8467C19.1401 25.8972 17.7801 25.2914 17.2261 24.4837C16.2187 23.1207 16.672 21.8587 18.1327 20.6471C21.1044 18.224 21.457 13.7311 18.6364 11.3584C16.9742 9.94493 16.672 8.48096 16.7727 6.61313C16.8231 5.50252 16.7727 4.4424 16.7727 3.3318C16.7224 1.41349 17.4275 0 19.543 0C21.6585 0 22.3636 1.46397 22.3133 3.38229C22.2629 6.56264 22.3133 9.743 22.3133 12.9738C22.3133 16.1542 22.3133 19.3346 22.3133 22.5654C22.3636 24.2313 21.9103 25.7458 20.0971 25.8467Z" fill="#BF9456"/>
<path d="M40.9496 22.9693C40.9496 24.7867 40.0934 25.9477 38.2801 25.9477C36.3661 25.9982 35.4091 24.7867 35.3587 22.9188C35.3587 18.7288 35.3084 14.4884 35.3587 10.2984C35.3587 8.5315 36.3661 7.4209 38.1794 7.4209C39.9926 7.4209 40.8993 8.5315 40.9496 10.3488C40.9496 12.4691 40.9496 14.5388 40.9496 16.6591C40.9496 18.7793 40.9496 20.8996 40.9496 22.9693Z" fill="#BF9456"/>
<path d="M8.9656 4.13956C9.26781 3.68522 11.2825 3.7357 11.5848 4.19004C12.4914 5.50257 12.8943 7.11799 13.6499 9.0363C10.9803 9.0363 9.26781 9.0363 6.69901 9.0363C7.55528 7.01703 8.00859 5.40161 8.9656 4.13956Z" fill="#BF9456"/>
<path d="M9.36855 25.7457C9.36855 24.7361 9.36855 23.676 9.36855 22.5149C10.7285 22.5149 11.7862 22.5149 12.8943 22.5149C12.7432 25.4933 12.1388 25.9981 9.36855 25.7457Z" fill="#BF9456"/>
<path d="M25.3858 73.7541C25.5872 74.2085 25.6376 74.9152 25.4361 75.3695C23.8747 78.6004 22.2629 81.8312 20.4496 85.4154C18.6867 81.8817 17.0246 78.6509 15.5135 75.42C15.3121 74.9657 15.3624 74.2589 15.5639 73.8046C17.075 70.6242 18.6867 67.4944 20.5 63.9102C22.2629 67.4439 23.8747 70.5738 25.3858 73.7541Z" fill="#BF9456"/>
</g>
<defs>
<clipPath id="clip0_55_65">
<rect width="41" height="110" fill="white" transform="matrix(-1 0 0 1 41 0)"/>
</clipPath>
</defs>
</svg>
