<svg width="100" height="100" viewBox="0 0 100 100" fill="none" xmlns="http://www.w3.org/2000/svg">
<g clip-path="url(#clip0_52_43)">
<path d="M76.0272 24.0233C77.2565 19.7288 78.3889 15.951 79.4241 12.1408C80.977 6.42562 85.2475 3.22898 90.165 0.774996C93.5296 -0.904048 96.7972 0.161499 98.5765 3.00296C99.45 4.42369 99.7088 5.68297 98.2853 6.94225C97.3795 7.74949 96.6677 8.71817 96.1501 9.94516C97.2824 9.36395 98.4148 8.78275 100 8.0078C99.7412 13.0772 100.874 17.9852 96.1501 21.5047C93.5943 23.4098 91.362 25.7346 89.0003 27.9303C88.3209 28.5438 87.7709 29.2865 87.1563 29.9645C87.2533 30.1583 87.318 30.352 87.4151 30.5457C91.1679 29.5448 94.9207 28.5438 98.6736 27.5428C99.6118 32.7091 96.1178 40.1357 91.8473 42.4282C88.1592 44.3979 84.4387 46.3675 80.7506 48.3372C80.8153 48.5632 80.88 48.7892 80.9447 49.0152C84.4387 48.4017 87.9327 47.7882 92.0091 47.0779C91.3944 48.2726 91.0061 49.0475 90.5856 49.7902C85.9916 57.6365 79.8124 64.1589 73.0508 70.1002C70.8509 72.0052 67.7451 72.9093 64.9628 74.2978C66.0628 74.5884 67.1627 74.9113 68.7803 75.331C67.098 76.4934 65.8039 77.3975 64.3158 78.4308C64.8334 79.0766 65.3187 79.6901 66.2569 80.8848C64.5099 80.5619 63.2158 80.465 62.0511 80.0775C59.4306 79.238 58.3306 79.6578 57.5218 82.2086C55.7425 87.7624 54.0602 93.3484 52.1514 98.9022C51.0191 91.4111 52.0544 83.9523 52.7337 76.6549C50.5662 76.4611 48.4309 76.2674 46.328 76.0414C46.3604 75.8154 46.3928 75.6216 46.4251 75.3956C48.0104 74.9113 49.628 74.4592 51.4073 73.9426C48.4633 68.0659 48.7544 62.2216 49.7897 56.248C50.7279 58.5729 51.6661 60.8977 52.6043 63.2225C52.8308 63.2225 53.0896 63.1902 53.3161 63.1902C52.6043 44.3979 60.66 29.0604 72.1449 14.5625C72.8243 16.4676 73.2773 17.9852 73.8919 19.4705C74.4743 20.8589 75.186 22.2151 76.0272 24.0233Z" fill="#BF9456"/>
<path d="M18.9906 59.6061C18.9906 58.2177 18.9259 57.0553 19.023 55.8929C19.0877 54.6982 18.7318 54.0847 17.5995 53.3743C16.726 52.8254 15.8848 51.1141 16.1113 50.1777C16.3378 49.209 17.7936 47.8205 18.7642 47.7883C24.6199 47.5622 30.5079 47.5945 36.3636 47.7883C37.3018 47.8205 38.5312 49.0798 38.9518 50.0485C39.2753 50.7912 38.7577 52.6639 38.1753 52.89C35.3284 54.0201 36.1048 56.2803 36.0401 58.3146C36.0401 58.702 36.0725 59.0895 36.1048 59.5416C38.1753 60.1228 40.1812 60.7363 42.187 61.2852C44.1281 61.8018 45.3898 62.7705 44.9369 65.0307C44.8075 65.7088 44.9046 66.4192 44.9046 67.3879C38.2077 63.7069 31.0256 63.1257 23.6817 63.61C18.2465 63.9652 13.0702 65.2891 8.47622 68.4857C4.94986 70.9397 3.49402 74.2332 4.82045 78.2048C6.59981 83.5002 8.79974 88.6665 10.9997 93.8005C11.3555 94.6078 12.8437 95.3504 13.8143 95.3504C22.8729 95.4796 31.9638 95.4796 41.0223 95.3181C42.1223 95.2858 43.5781 94.2526 44.2252 93.2516C45.4545 91.3788 46.2633 89.2154 47.5574 87.1812C47.5574 90.281 47.978 93.4453 47.3633 96.416C47.1045 97.7075 44.8722 98.7731 43.3517 99.548C42.3811 100.032 41.0547 99.9032 39.89 99.9032C31.6079 99.9355 23.2934 99.8386 15.0113 99.9355C10.7732 100 7.92624 98.3856 6.17923 94.414C3.62343 88.7311 0.679394 83.2096 0.0647062 76.8486C-0.35587 72.6833 0.841154 69.1961 4.01165 66.3546C8.24976 62.6091 13.329 60.8009 18.9906 59.6061Z" fill="#BF9456"/>
<path d="M36.0725 77.8818C37.1077 80.3358 38.3371 82.4346 38.8871 84.6949C39.1459 85.7281 38.3371 87.4395 37.4636 88.1498C36.8166 88.6665 34.7784 88.505 34.1961 87.8592C33.4196 86.9874 32.999 85.2761 33.2902 84.146C33.8402 82.0794 35.0372 80.1421 36.0725 77.8818Z" fill="#BF9456"/>
<path d="M22.9699 72.199C24.0052 74.5884 25.0404 76.6549 25.8492 78.8506C26.4639 80.5296 25.8169 81.9826 24.1669 82.7253C22.6464 83.3711 21.0612 83.0482 20.3818 81.466C19.9612 80.4327 20.0259 79.012 20.3818 77.9465C20.9964 76.0091 21.9994 74.2655 22.9699 72.199Z" fill="#BF9456"/>
</g>
<defs>
<clipPath id="clip0_52_43">
<rect width="100" height="100" fill="white"/>
</clipPath>
</defs>
</svg>
