<svg width="99" height="100" viewBox="0 0 99 100" fill="none" xmlns="http://www.w3.org/2000/svg">
<g clip-path="url(#clip0_51_31)">
<path d="M33.9159 69.5103C33.1003 68.2464 32.2848 67.0002 31.4692 65.7364C34.9442 62.2433 37.4262 59.189 38.9864 57.1178C40.6529 54.9061 43.5605 53.9056 50.209 39.6524C51.1486 37.6689 52.3719 35.7206 53.808 34.0706C56.8042 30.6126 59.9423 27.2775 63.2044 24.0653C64.0909 23.1876 65.5624 22.8541 66.8034 22.4153C67.5126 22.1696 68.3459 22.2398 69.1082 22.0818C75.012 20.7829 77.7423 16.9212 77.0686 10.9531C76.9622 10.0404 76.9622 8.82921 77.4764 8.17974C79.4975 5.54678 81.7136 3.08935 84.3553 0C85.7736 8.00421 90.0463 12.7084 98.1486 13.8143C97.4217 14.6568 97.0139 15.1834 96.5529 15.6398C85.8091 26.277 75.0652 36.9142 64.3036 47.5338C63.5945 48.2359 62.7789 48.9029 61.8925 49.3242C52.6201 53.6774 44.8016 59.9614 37.639 67.123C36.6284 68.1236 35.3342 68.8608 34.1818 69.7209C34.0754 69.6507 33.9868 69.5805 33.9159 69.5103Z" fill="#BF9456"/>
<path d="M22.4451 79.7262C24.5017 79.9193 26.3278 80.1124 28.3489 80.3055C27.7107 86.3613 27.0724 92.3469 26.4164 98.5256C21.6473 97.2969 16.5945 99.1224 11.4176 99.8947C5.63787 100.772 0.248212 96.2086 3.71598e-06 90.381C-0.141829 86.6948 2.57073 83.4299 6.32931 83.0087C7.99585 82.8156 9.71558 82.9736 11.6481 82.9736C11.5594 82.5347 11.3821 81.7448 11.2403 80.955C10.3184 75.3029 15.0343 70.7742 20.5481 71.9853C22.0905 72.3364 23.0656 72.9332 22.7465 74.7938C22.4983 76.3209 22.5515 77.8832 22.4451 79.7262Z" fill="#BF9456"/>
<path d="M23.7748 78.5326C23.9344 75.3028 24.2003 72.3012 24.1471 69.3172C24.1294 68.1412 23.6507 66.7545 22.8883 65.8768C19.112 61.4534 15.1939 57.188 11.3289 52.8524C10.8325 52.2907 10.4425 51.6412 9.99924 51.0269C10.1943 50.8689 10.3893 50.6934 10.5843 50.5354C11.0453 50.9391 11.5594 51.3077 11.9849 51.7466C16.2222 56.363 20.4949 60.9795 24.6435 65.6662C25.2286 66.3156 25.5654 67.4215 25.5654 68.3167C25.5477 71.3007 25.2995 74.2672 25.1399 77.4092C28.3844 77.6023 31.3983 77.7251 34.4123 77.9884C35.1746 78.0587 36.1497 78.3571 36.6107 78.8837C40.777 83.8687 44.8547 88.924 48.9502 93.9793C49.0743 94.1197 49.0388 94.383 49.1984 95.3309C48.241 94.5761 47.6737 94.2602 47.3014 93.8038C43.7024 89.4506 40.192 85.0272 36.5398 80.7267C35.8838 79.9544 34.6782 79.34 33.6677 79.2172C30.4232 78.831 27.1611 78.7432 23.7748 78.5326Z" fill="#BF9456"/>
<path d="M38.2772 70.8091C38.2772 70.7916 38.2772 70.774 38.2772 70.774C38.3481 70.6161 38.9155 70.423 39.075 70.3177C39.731 69.949 40.3693 69.598 41.0252 69.2294C42.284 68.5272 43.5428 67.8251 44.8015 67.123C45.7944 66.5613 46.8049 65.9996 47.9396 65.8065C49.0565 65.6134 50.333 65.8592 51.0777 66.7017C51.5209 67.2108 51.7336 67.8602 51.7868 68.5272C51.8223 69.0889 51.7514 69.6858 51.45 70.1597C51.0068 70.8618 50.1912 71.2304 49.4111 71.4586C45.8653 72.5469 42.0535 72.0379 38.4545 71.4937C38.4191 71.4937 38.2772 70.9496 38.2772 70.8091Z" fill="#BF9456"/>
<path d="M39.341 75.4607C41.7167 76.4612 44.1633 77.3213 46.4326 78.4974C47.7091 79.1644 48.5779 80.3931 47.4432 81.9378C46.3263 83.4474 44.8902 83.1314 43.8442 82.0607C42.0358 80.2351 40.4402 78.1814 38.7737 76.233C38.9509 75.9697 39.146 75.724 39.341 75.4607Z" fill="#BF9456"/>
<path d="M25.6895 61.4534C25.6541 60.1544 25.5654 58.873 25.5477 57.5917C25.53 56.6263 25.264 55.1869 26.1682 54.5374C26.4873 54.3092 26.8774 54.1688 27.2497 54.0284C27.3738 53.9757 27.4979 53.9406 27.6397 53.9582C27.817 53.9933 27.9411 54.1162 28.0652 54.2566C28.2957 54.5023 28.5262 54.7656 28.668 55.0816C29.0581 55.9241 28.3666 57.2231 28.083 58.0129C27.6752 59.2241 27.1965 60.4002 26.771 61.6113C26.3987 61.5411 26.0441 61.4885 25.6895 61.4534Z" fill="#BF9456"/>
<path d="M28.8099 74.2846C30.5473 72.3889 32.2671 70.4931 34.0045 68.5974C34.1641 68.7378 34.3236 68.8958 34.4832 69.0362C32.6748 70.8618 30.8487 72.6697 29.0404 74.4953C28.9517 74.4075 28.8808 74.3548 28.8099 74.2846Z" fill="#BF9456"/>
<path d="M26.6292 70.8442C28.4376 69.0187 30.2459 67.1932 32.0543 65.3677C32.2139 65.5257 32.3557 65.6661 32.5153 65.8241C30.6182 67.5618 28.7389 69.2996 26.8419 71.0373C26.771 70.9847 26.7001 70.9145 26.6292 70.8442Z" fill="#BF9456"/>
<path d="M27.5334 72.0729C29.2708 70.1772 30.9905 68.2815 32.728 66.3857C32.8876 66.5262 33.0471 66.6841 33.2067 66.8246C31.3983 68.6501 29.5722 70.4581 27.7638 72.2836C27.6752 72.1958 27.6043 72.1432 27.5334 72.0729Z" fill="#BF9456"/>
<path d="M28.1716 73.1789C29.9091 71.2832 31.6288 69.3874 33.3662 67.4917C33.5258 67.6321 33.6854 67.7901 33.8449 67.9305C32.0366 69.756 30.2105 71.564 28.4021 73.3895C28.3134 73.3018 28.2425 73.2491 28.1716 73.1789Z" fill="#BF9456"/>
</g>
<defs>
<clipPath id="clip0_51_31">
<rect width="98.1308" height="100" fill="white"/>
</clipPath>
</defs>
</svg>
