<svg width="187" height="20" viewBox="0 0 187 20" fill="none" xmlns="http://www.w3.org/2000/svg">
<path d="M5.33594 19.2344C4.82031 19.2344 4.36328 19.1094 3.96484 18.8594C3.56641 19.1094 3.19531 19.2344 2.85156 19.2344C2.51562 19.2344 2.23828 19.2031 2.01953 19.1406C1.80078 19.0859 1.60938 19.0078 1.44531 18.9062C1.10938 18.7031 0.941406 18.4492 0.941406 18.1445C0.941406 17.9883 0.984375 17.8516 1.07031 17.7344C1.24219 17.8672 1.46094 17.9336 1.72656 17.9336C2.42188 17.9336 2.90234 17.6367 3.16797 17.043V11.3125C3.16797 10.9531 3.09375 10.6875 2.94531 10.5156C2.71094 10.2266 2.30859 9.94141 1.73828 9.66016C2.26953 9.41797 2.61328 9.20312 2.76953 9.01562C3.03516 8.71094 3.16797 8.36719 3.16797 7.98438V3.03906C2.90234 2.4375 2.42188 2.13672 1.72656 2.13672C1.46094 2.13672 1.24219 2.20312 1.07031 2.33594C0.984375 2.21875 0.941406 2.08594 0.941406 1.9375C0.941406 1.78125 0.984375 1.63672 1.07031 1.50391C1.16406 1.37109 1.28906 1.25781 1.44531 1.16406C1.80469 0.945312 2.21484 0.835938 2.67578 0.835938C3.14453 0.835938 3.57422 0.964844 3.96484 1.22266C4.37109 0.964844 4.83594 0.835938 5.35938 0.835938C5.88281 0.835938 6.35938 0.988281 6.78906 1.29297C7.61719 0.988281 8.57422 0.835938 9.66016 0.835938C10.4648 0.835938 11.1523 0.914063 11.7227 1.07031L12.7656 1.35156C12.8906 1.38281 13.0117 1.39844 13.1289 1.39844C13.3477 1.39844 13.457 1.24219 13.457 0.929688C13.457 0.851562 13.4297 0.71875 13.375 0.53125C13.5938 0.492188 13.8711 0.472656 14.207 0.472656C14.543 0.472656 14.8281 0.585938 15.0625 0.8125C15.2969 1.03125 15.4141 1.35156 15.4141 1.77344C15.4141 2.1875 15.3398 2.49219 15.1914 2.6875C15.4023 3 15.5078 3.38281 15.5078 3.83594C15.5078 4.28125 15.3555 4.65625 15.0508 4.96094C15.1445 5.19531 15.1914 5.42578 15.1914 5.65234C15.1914 5.87109 15.1523 6.07422 15.0742 6.26172C15.0039 6.44141 14.9141 6.59375 14.8047 6.71875C14.5859 6.94531 14.3633 7.05859 14.1367 7.05859C13.8086 7.05859 13.5117 6.98828 13.2461 6.84766C13.3398 6.66016 13.3867 6.38281 13.3867 6.01562C13.3867 5.15625 13.1719 4.40234 12.7422 3.75391C12.1562 2.86328 11.2773 2.41797 10.1055 2.41797C9.51172 2.41797 8.97266 2.5625 8.48828 2.85156C8.01172 3.14062 7.67578 3.55469 7.48047 4.09375V8.62891C7.75391 8.80078 8.00781 8.88672 8.24219 8.88672C8.48438 8.88672 8.66406 8.88281 8.78125 8.875C8.90625 8.86719 9.03125 8.85156 9.15625 8.82812C9.47656 8.78125 9.72266 8.71875 9.89453 8.64062C10.2227 8.48438 10.3867 8.10156 10.3867 7.49219C10.3867 7.14844 10.3047 6.88281 10.1406 6.69531C10.2969 6.58594 10.4922 6.53125 10.7266 6.53125C11.25 6.53125 11.6289 6.74219 11.8633 7.16406C11.9492 7.3125 11.9922 7.47656 11.9922 7.65625C11.9922 7.83594 11.9453 8.05859 11.8516 8.32422C12.1719 8.69141 12.332 9.12891 12.332 9.63672C12.332 10.1367 12.1719 10.5703 11.8516 10.9375C11.9453 11.2031 11.9922 11.4453 11.9922 11.6641C11.9922 11.875 11.9492 12.0781 11.8633 12.2734C11.7773 12.4688 11.6719 12.625 11.5469 12.7422C11.3047 12.9609 11.0312 13.0703 10.7266 13.0703C10.5078 13.0703 10.3125 13.0078 10.1406 12.8828C10.3047 12.6094 10.3867 12.2891 10.3867 11.9219C10.3867 11.1953 10.1875 10.7461 9.78906 10.5742C9.4375 10.4336 9.03516 10.3633 8.58203 10.3633C8.12891 10.3633 7.76172 10.4453 7.48047 10.6094V16.4688C7.93359 17.2656 8.80859 17.6641 10.1055 17.6641C11.5742 17.6641 12.5742 17.2109 13.1055 16.3047C13.7227 15.2656 14.0312 14.1523 14.0312 12.9648C14.0312 12.6211 14 12.3555 13.9375 12.168C14.1328 11.9727 14.3359 11.875 14.5469 11.875C14.7578 11.875 14.918 11.9062 15.0273 11.9688C15.1367 12.0234 15.2344 12.0938 15.3203 12.1797C15.5078 12.3906 15.6016 12.6055 15.6016 12.8242L15.5312 13.3984C15.5312 13.5469 15.5703 13.668 15.6484 13.7617C15.8047 13.9258 15.8828 14.082 15.8828 14.2305C15.8828 14.3711 15.8359 14.543 15.7422 14.7461C15.9219 14.8477 16.082 15 16.2227 15.2031C16.3711 15.3984 16.4453 15.6016 16.4453 15.8125C16.4453 16.2578 16.2578 16.6562 15.8828 17.0078C16.0469 17.2422 16.1289 17.582 16.1289 18.0273C16.1289 18.4648 16 18.8359 15.7422 19.1406C15.4922 19.4531 15.1641 19.6094 14.7578 19.6094C14.5391 19.6094 14.3125 19.5859 14.0781 19.5391C14.1094 19.3672 14.125 19.1953 14.125 19.0234C14.125 18.6641 13.9609 18.4844 13.6328 18.4844C13.2656 18.4844 12.8984 18.5586 12.5312 18.707C11.6641 19.0586 10.6758 19.2344 9.56641 19.2344C8.46484 19.2344 7.52734 19.0898 6.75391 18.8008C6.34766 19.0898 5.875 19.2344 5.33594 19.2344ZM4.29297 15.8945C4.68359 15.7461 4.89844 15.2344 4.9375 14.3594C4.98438 13.4844 5.00781 12.2734 5.00781 10.7266C5.00781 9.17969 5.00391 8.15234 4.99609 7.64453C4.99609 7.12891 4.99219 6.71484 4.98438 6.40234C4.96094 5.48047 4.87109 4.92578 4.71484 4.73828C4.56641 4.54297 4.42578 4.41406 4.29297 4.35156C4.29297 7.07031 4.24609 8.61719 4.15234 8.99219C4.04297 9.30469 3.77734 9.52734 3.35547 9.66016C3.82422 9.82422 4.08984 10.0234 4.15234 10.2578C4.24609 10.6328 4.29297 12.0039 4.29297 14.3711V15.8945ZM7.24609 15.7773C7.24609 15.8008 7.25 15.8203 7.25781 15.8359L7.24609 15.7773ZM20.3828 18.7188C19.8516 19.2266 19.3398 19.4805 18.8477 19.4805C18.5742 19.4805 18.3867 19.3789 18.2852 19.1758C18.4648 18.9961 18.5547 18.8164 18.5547 18.6367C18.5547 18.457 18.5273 18.3203 18.4727 18.2266L18.3203 17.957L18.5078 18.3086C18.3203 18.2227 18.1758 18.0781 18.0742 17.875C17.9727 17.6719 17.9219 17.4258 17.9219 17.1367C17.9219 16.8398 18.0859 16.5039 18.4141 16.1289C18.2578 15.9102 18.1797 15.668 18.1797 15.4023C18.1797 15.1367 18.2227 14.918 18.3086 14.7461C18.4023 14.5664 18.5195 14.4062 18.6602 14.2656C18.9727 13.9688 19.3047 13.8203 19.6562 13.8203C19.8906 13.8203 20.0586 13.9023 20.1602 14.0664C19.9492 14.293 19.8438 14.6523 19.8438 15.1445C19.8438 15.6289 19.9258 16.043 20.0898 16.3867C20.2617 16.7305 20.4922 17.0234 20.7812 17.2656C21.3906 17.7812 22.1406 18.0391 23.0312 18.0391C24.0234 18.0391 24.7109 17.6758 25.0938 16.9492C25.2031 16.7305 25.2578 16.5117 25.2578 16.293C25.2578 16.0664 25.207 15.8672 25.1055 15.6953C25.0039 15.5156 24.8711 15.3438 24.707 15.1797C24.4336 14.9141 24.0156 14.6094 23.4531 14.2656C22.9141 13.8828 22.2773 13.6914 21.543 13.6914C21.0664 13.6914 20.7461 13.7305 20.582 13.8086C20.6836 13.5742 20.7344 13.3398 20.7344 13.1055C20.7344 12.8711 20.5781 12.6172 20.2656 12.3438C19.9531 12.0625 19.6719 11.7812 19.4219 11.5C19.1797 11.2188 18.9844 10.9375 18.8359 10.6562C18.5391 10.125 18.3906 9.5625 18.3906 8.96875C18.3906 8.375 18.5117 7.85156 18.7539 7.39844C19.0039 6.9375 19.3516 6.54297 19.7969 6.21484C20.7266 5.51953 21.918 5.17188 23.3711 5.17188C24.0742 5.17188 24.5547 5.20312 24.8125 5.26562C25.0781 5.32812 25.2891 5.38672 25.4453 5.44141C25.6562 5.51953 25.9141 5.55859 26.2188 5.55859C26.5234 5.55859 26.7344 5.49219 26.8516 5.35938C26.9766 5.22656 27.0391 5.10547 27.0391 4.99609C27.0391 4.87891 27.0273 4.78906 27.0039 4.72656C27.0508 4.71094 27.1211 4.70312 27.2148 4.70312C27.3086 4.70312 27.4141 4.73047 27.5312 4.78516C27.6562 4.83984 27.7656 4.91406 27.8594 5.00781C28.0469 5.21875 28.1406 5.44531 28.1406 5.6875C28.1406 5.92188 28.0938 6.10156 28 6.22656C28.2188 6.42969 28.3281 6.71875 28.3281 7.09375C28.3281 7.46875 28.1719 7.78516 27.8594 8.04297C27.9297 8.18359 27.9648 8.35547 27.9648 8.55859C27.9648 8.76172 27.8555 8.95703 27.6367 9.14453C27.418 9.33203 27.2109 9.42578 27.0156 9.42578C26.6797 9.42578 26.4531 9.38281 26.3359 9.29688C26.4375 9.04688 26.4883 8.77734 26.4883 8.48828C26.4883 8.19141 26.4102 7.91016 26.2539 7.64453C26.0977 7.37891 25.8984 7.16406 25.6562 7C25.2031 6.6875 24.6641 6.53125 24.0391 6.53125C23.25 6.53125 22.7188 6.78125 22.4453 7.28125C22.3594 7.4375 22.3164 7.60938 22.3164 7.79688C22.3164 7.97656 22.3398 8.14453 22.3867 8.30078C22.4414 8.44922 22.5273 8.60156 22.6445 8.75781C22.8711 9.0625 23.1914 9.35156 23.6055 9.625C24.1445 9.97656 24.5195 10.1523 24.7305 10.1523C25.1836 10.1523 25.5781 10.043 25.9141 9.82422C25.8203 10.1992 25.7734 10.4609 25.7734 10.6094C25.7734 10.8359 25.9531 11.0977 26.3125 11.3945C27.3203 12.0898 28.0078 12.7266 28.375 13.3047C28.7266 13.8672 28.9023 14.4922 28.9023 15.1797C28.9023 15.8672 28.75 16.457 28.4453 16.9492C28.1406 17.4336 27.7266 17.8516 27.2031 18.2031C26.1172 18.9297 24.8008 19.293 23.2539 19.293C22.1992 19.293 21.2422 19.1016 20.3828 18.7188ZM19.9727 7.98438C19.7461 8.09375 19.6328 8.39844 19.6328 8.89844C19.6328 9.39062 19.793 9.86328 20.1133 10.3164C20.4336 10.7617 20.9414 11.2656 21.6367 11.8281C21.8008 11.9531 21.8828 12.0742 21.8828 12.1914C21.8828 12.3711 21.8672 12.5156 21.8359 12.625C21.9297 12.6016 22.0938 12.5781 22.3281 12.5547C22.8984 12.5 23.6055 12.7656 24.4492 13.3516C25.793 14.1797 26.4648 15.0508 26.4648 15.9648C26.4648 16.3086 26.418 16.5664 26.3242 16.7383C26.6055 16.6836 26.8203 16.4453 26.9688 16.0234C27.0078 15.8984 27.0273 15.7695 27.0273 15.6367C27.0273 15.0039 26.6836 14.3633 25.9961 13.7148C25.3164 13.0586 24.3359 12.4258 23.0547 11.8164C20.9297 10.7383 19.9023 9.46094 19.9727 7.98438ZM32.7344 18.8594C32.375 19.1094 31.9648 19.2344 31.5039 19.2344C31.0508 19.2344 30.7109 19.1328 30.4844 18.9297C30.2656 18.7266 30.1562 18.5312 30.1562 18.3438C30.1562 18.0859 30.2109 17.8828 30.3203 17.7344C30.4922 17.8672 30.7109 17.9336 30.9766 17.9336C31.4297 17.9336 31.7539 17.6719 31.9492 17.1484V13.5391C31.9492 13.1484 31.875 12.8828 31.7266 12.7422C31.5469 12.5547 31.1445 12.3086 30.5195 12.0039C31.0664 11.7539 31.4141 11.5547 31.5625 11.4062C31.8203 11.1484 31.9492 10.832 31.9492 10.457V3.82422C31.9492 2.93359 31.5859 2.48828 30.8594 2.48828C30.5938 2.48828 30.375 2.55469 30.2031 2.6875C30.0938 2.53906 30.0391 2.38672 30.0391 2.23047C30.0391 2.06641 30.0781 1.91016 30.1562 1.76172C30.2422 1.61328 30.3672 1.47656 30.5312 1.35156C30.9062 1.08594 31.375 0.953125 31.9375 0.953125C32.5 0.953125 32.9375 0.988281 33.25 1.05859C33.6797 0.519531 34.1641 0.25 34.7031 0.25C35.5078 0.25 35.9102 0.671875 35.9102 1.51562V7.29297C36.668 5.87891 37.9062 5.17188 39.625 5.17188C41.5938 5.17188 42.8477 6.04297 43.3867 7.78516C43.5586 8.33984 43.6445 8.96875 43.6445 9.67188V10.457C43.6445 10.8242 43.7266 11.0898 43.8906 11.2539C44.1328 11.4961 44.5273 11.7422 45.0742 11.9922C44.4805 12.2812 44.1133 12.5039 43.9727 12.6602C43.7539 12.9023 43.6445 13.1953 43.6445 13.5391V17.207C43.793 17.6914 44.1172 17.9336 44.6172 17.9336C44.8828 17.9336 45.1016 17.8672 45.2734 17.7344C45.3594 17.8516 45.4023 18.0234 45.4023 18.25C45.4023 18.4766 45.2969 18.6992 45.0859 18.918C44.8828 19.1289 44.5547 19.2344 44.1016 19.2344C43.6484 19.2344 43.2305 19.1094 42.8477 18.8594C42.4961 19.1094 42.0977 19.2344 41.6523 19.2344C41.2148 19.2344 40.832 19.1172 40.5039 18.8828C40.1992 19.1172 39.8555 19.2344 39.4727 19.2344C39.0977 19.2344 38.7969 19.1367 38.5703 18.9414C38.3438 18.7461 38.2305 18.4648 38.2305 18.0977C38.2305 17.9258 38.2891 17.7891 38.4062 17.6875C38.5859 17.8281 38.7656 17.8984 38.9453 17.8984C39.2891 17.8984 39.5352 17.707 39.6836 17.3242V10.3398C39.6836 8.81641 39.3125 7.9375 38.5703 7.70312C38.3359 7.625 38.082 7.58594 37.8086 7.58594C36.9961 7.58594 36.4297 8.01562 36.1094 8.875C36.0078 9.14062 35.9414 9.42969 35.9102 9.74219V17.3242C36.0586 17.707 36.3047 17.8984 36.6484 17.8984C36.8281 17.8984 37.0078 17.8281 37.1875 17.6875C37.3047 17.7891 37.3633 17.9766 37.3633 18.25C37.3633 18.5156 37.25 18.7461 37.0234 18.9414C36.7969 19.1367 36.4922 19.2344 36.1094 19.2344C35.7266 19.2344 35.3828 19.1172 35.0781 18.8828C34.7578 19.1172 34.3789 19.2344 33.9414 19.2344C33.5039 19.2344 33.1016 19.1094 32.7344 18.8594ZM33.0508 15.8828C33.4023 15.6562 33.6094 15.1602 33.6719 14.3945C33.6953 14.0586 33.7109 13.6836 33.7188 13.2695C33.7266 12.8555 33.7305 12.5625 33.7305 12.3906C33.7383 12.2109 33.7422 12.0781 33.7422 11.9922V10.9375C33.7422 10.6484 33.7422 10.3203 33.7422 9.95312L33.7188 8.80469C33.7031 6.73438 33.668 5.58203 33.6133 5.34766C33.5039 4.85547 33.3164 4.52344 33.0508 4.35156V8.30078C33.0508 9.91797 33.0312 10.8203 32.9922 11.0078C32.9609 11.1875 32.9336 11.3203 32.9102 11.4062C32.8398 11.6484 32.5742 11.8477 32.1133 12.0039C32.582 12.168 32.8477 12.3633 32.9102 12.5898C33.0039 12.9648 33.0508 13.8086 33.0508 15.1211V15.8828ZM40.7969 15.8945C41.1875 15.7461 41.4062 15.2344 41.4531 14.3594C41.4922 13.4844 41.5117 12.6836 41.5117 11.957C41.5117 11.2227 41.4883 10.625 41.4414 10.1641C41.3945 9.70312 41.3164 9.33984 41.207 9.07422C41.1055 8.80078 40.9727 8.59766 40.8086 8.46484C40.6445 8.32422 40.4453 8.19531 40.2109 8.07812C40.5078 8.78125 40.6797 9.42188 40.7266 10C40.7734 10.5781 40.7969 11.1367 40.7969 11.6758V15.8945ZM68.1719 6.91797C67.9844 6.80859 67.7422 6.75391 67.4453 6.75391C67.1562 6.75391 66.9414 6.76562 66.8008 6.78906C66.6602 6.8125 66.5273 6.85547 66.4023 6.91797C66.1367 7.05078 65.9453 7.29688 65.8281 7.65625L64.9844 10.1172C64.8984 10.375 64.8555 10.6016 64.8555 10.7969C64.8555 10.9844 64.8867 11.1367 64.9492 11.2539C65.0195 11.3711 65.1016 11.4844 65.1953 11.5938C65.4062 11.8203 65.582 11.9531 65.7227 11.9922C65.1133 12.1562 64.7109 12.3164 64.5156 12.4727C64.2266 12.6914 64.0078 12.9922 63.8594 13.375L62.1836 18.4492C61.9258 19.0977 61.5156 19.4219 60.9531 19.4219C60.7891 19.4219 60.6133 19.3945 60.4258 19.3398L56.5117 9.625L53.7695 18.4492C53.6367 18.8711 53.3633 19.168 52.9492 19.3398C52.8164 19.3945 52.6719 19.4219 52.5156 19.4219C52.3672 19.4219 52.1992 19.3945 52.0117 19.3398L49.5273 13.4453C49.3242 12.9453 48.8555 12.5508 48.1211 12.2617L47.4414 12.0039C48.0039 11.5195 48.2852 11.1875 48.2852 11.0078C48.2852 10.8281 48.2656 10.6602 48.2266 10.5039C48.1875 10.3477 48.125 10.1523 48.0391 9.91797C47.9609 9.68359 47.8594 9.39844 47.7344 9.0625L47.2539 7.84375C47.0664 7.375 46.9141 7.08984 46.7969 6.98828C46.5938 6.80078 46.3359 6.70703 46.0234 6.70703C45.7109 6.70703 45.4688 6.77344 45.2969 6.90625C45.2109 6.82031 45.168 6.65234 45.168 6.40234C45.168 6.15234 45.2734 5.92578 45.4844 5.72266C45.6953 5.51172 46.0273 5.40625 46.4805 5.40625C46.9414 5.40625 47.3672 5.54688 47.7578 5.82812C48.0781 5.54688 48.4727 5.40625 48.9414 5.40625C49.418 5.40625 49.8359 5.53906 50.1953 5.80469C50.5391 5.53906 50.9336 5.40625 51.3789 5.40625C51.8242 5.40625 52.1719 5.51172 52.4219 5.72266C52.6719 5.92578 52.7969 6.18359 52.7969 6.49609C52.7969 6.68359 52.7383 6.83594 52.6211 6.95312C52.4336 6.8125 52.2578 6.74219 52.0938 6.74219C51.9375 6.74219 51.8203 6.75391 51.7422 6.77734C51.6641 6.79297 51.5938 6.82422 51.5312 6.87109C51.375 6.98047 51.3047 7.13281 51.3203 7.32812L53.7227 13.5742L55.6797 7.57422C55.4141 6.99609 55.0664 6.70703 54.6367 6.70703C54.3789 6.70703 54.1602 6.77344 53.9805 6.90625C53.8945 6.82031 53.8516 6.65234 53.8516 6.40234C53.8516 6.15234 53.9727 5.92578 54.2148 5.72266C54.4648 5.51172 54.8047 5.40625 55.2344 5.40625C55.6641 5.40625 56.0352 5.53906 56.3477 5.80469C56.6836 5.53906 57.0742 5.40625 57.5195 5.40625C57.9648 5.40625 58.3633 5.53516 58.7148 5.79297C59.0195 5.53516 59.3398 5.40625 59.6758 5.40625C60.0117 5.40625 60.2695 5.42969 60.4492 5.47656C60.6367 5.51562 60.7969 5.57812 60.9297 5.66406C61.2266 5.83594 61.375 6.07422 61.375 6.37891C61.375 6.56641 61.3164 6.71875 61.1992 6.83594C61.0117 6.69531 60.8203 6.625 60.625 6.625C60.4297 6.625 60.2734 6.69922 60.1562 6.84766C60.0469 6.99609 59.9922 7.16406 59.9922 7.35156C59.9922 7.53125 60.0156 7.69531 60.0625 7.84375L60.0391 7.78516L62.1836 13.5742L64.2227 7.53906C64.1992 6.97656 63.8555 6.69531 63.1914 6.69531C62.8789 6.69531 62.5938 6.76953 62.3359 6.91797C62.25 6.77734 62.207 6.58984 62.207 6.35547C62.207 6.11328 62.3125 5.89453 62.5234 5.69922C62.7344 5.50391 63.0234 5.40625 63.3906 5.40625C63.7656 5.40625 64.0859 5.53125 64.3516 5.78125C64.6328 5.53125 64.9531 5.40625 65.3125 5.40625C65.6719 5.40625 65.9883 5.51953 66.2617 5.74609C66.5508 5.51953 66.8633 5.40625 67.1992 5.40625C67.543 5.40625 67.8086 5.5 67.9961 5.6875C68.1914 5.875 68.2891 6.09766 68.2891 6.35547C68.2891 6.61328 68.25 6.80078 68.1719 6.91797ZM51.332 7.46875C51.3555 7.55469 51.3906 7.65234 51.4375 7.76172L51.332 7.46875ZM57.6602 8.08984C57.5508 8.24609 57.4961 8.43359 57.4961 8.65234C57.4961 8.87109 57.5156 9.07031 57.5547 9.25C57.6016 9.42969 57.6602 9.62109 57.7305 9.82422C57.8008 10.0273 57.8828 10.2422 57.9766 10.4688L58.2344 11.1484L60.3086 15.8945C60.3789 15.8164 60.4141 15.6836 60.4141 15.4961C60.4141 15.3086 60.4023 15.1602 60.3789 15.0508C60.3633 14.9414 60.3281 14.8047 60.2734 14.6406C60.2266 14.4766 60.1602 14.2734 60.0742 14.0312L59.7578 13.1523L57.6602 8.08984ZM49.1289 8.08984C49.0195 8.16016 48.9648 8.29688 48.9648 8.5C48.9648 8.70312 48.9688 8.85547 48.9766 8.95703C48.9844 9.05078 49.0039 9.16406 49.0352 9.29688C49.0977 9.57812 49.2266 9.95312 49.4219 10.4219C49.6172 10.8828 49.7148 11.1641 49.7148 11.2656C49.7227 11.3672 49.7148 11.4531 49.6914 11.5234C49.668 11.5859 49.6328 11.6484 49.5859 11.7109C49.4922 11.8672 49.3789 11.9688 49.2461 12.0156C49.793 12.125 50.1328 12.2969 50.2656 12.5312L50.4297 12.8477C50.4766 12.9492 50.5312 13.0781 50.5938 13.2344L51.2383 14.6758C51.4023 15.0352 51.5625 15.3125 51.7188 15.5078C51.875 15.7031 52.0859 15.832 52.3516 15.8945L49.1289 8.08984ZM76.4688 17.8867C75.7578 18.8242 74.6914 19.293 73.2695 19.293C71.5352 19.293 70.2344 18.7734 69.3672 17.7344C68.9922 17.2891 68.7344 16.793 68.5938 16.2461C68.5156 15.918 68.3789 15.668 68.1836 15.4961C67.9883 15.3164 67.7461 15.1562 67.457 15.0156C68.0195 14.7578 68.4219 14.2734 68.6641 13.5625C68.9219 12.8125 69.3516 12.2695 69.9531 11.9336C70.6016 11.582 71.3164 11.3984 72.0977 11.3828C72.8789 11.3594 73.457 11.332 73.832 11.3008C74.207 11.2695 74.5391 11.2188 74.8281 11.1484C75.3672 11.0234 75.7891 10.793 76.0938 10.457V8.69922C76.0938 7.92578 75.9336 7.35938 75.6133 7C75.3008 6.64062 74.8203 6.46094 74.1719 6.46094C73.5312 6.46094 73.0547 6.58203 72.7422 6.82422C72.4375 7.05859 72.2852 7.375 72.2852 7.77344C72.2852 8.38281 72.5977 8.67969 73.2227 8.66406C73.0977 9.27344 72.7695 9.57812 72.2383 9.57812C72.082 9.57812 71.9297 9.55078 71.7812 9.49609V9.53125C71.7812 9.73438 71.875 9.86328 72.0625 9.91797C71.8672 10.2148 71.5391 10.3594 71.0781 10.3516C70.6172 10.3438 70.2578 10.0977 70 9.61328C69.8828 9.64453 69.7461 9.66016 69.5898 9.66016C69.4414 9.66016 69.2734 9.60938 69.0859 9.50781C68.9062 9.40625 68.7617 9.26562 68.6523 9.08594C69.043 8.85156 69.2812 8.48828 69.3672 7.99609C69.4609 7.39453 69.9414 6.78516 70.8086 6.16797C71.8555 5.42578 73.1914 5.05469 74.8164 5.05469C77.5117 5.05469 79.1562 5.88281 79.75 7.53906C79.9453 8.09375 80.043 8.75 80.043 9.50781V10.457C80.043 10.8398 80.1367 11.1523 80.3242 11.3945C80.5195 11.6367 80.8477 11.8359 81.3086 11.9922C80.8164 12.2188 80.5 12.4219 80.3594 12.6016C80.1484 12.875 80.043 13.1875 80.043 13.5391V17.0547C80.2695 17.6406 80.5938 17.9336 81.0156 17.9336C81.2812 17.9336 81.5 17.8672 81.6719 17.7344C81.7812 17.8828 81.8359 18.0703 81.8359 18.2969C81.8359 18.5156 81.7227 18.7266 81.4961 18.9297C81.2773 19.1328 80.9453 19.2344 80.5 19.2344C80.0547 19.2344 79.6406 19.1094 79.2578 18.8594C78.9219 19.1094 78.6211 19.2344 78.3555 19.2344C78.0977 19.2344 77.8711 19.207 77.6758 19.1523C77.4883 19.1055 77.3125 19.0273 77.1484 18.918C76.7812 18.6758 76.5547 18.332 76.4688 17.8867ZM77.207 15.8945C77.6602 15.7148 77.8984 14.8516 77.9219 13.3047C77.9219 12.9766 77.9219 12.6016 77.9219 12.1797C77.9219 11.7578 77.918 11.3984 77.9102 11.1016C77.9102 10.7969 77.9062 10.5078 77.8984 10.2344C77.8672 9.25 77.7773 8.66406 77.6289 8.47656C77.4805 8.28125 77.3398 8.15234 77.207 8.08984V15.8945ZM72.8828 15.0625C72.8828 15.3906 72.918 15.7109 72.9883 16.0234C73.0586 16.3359 73.1641 16.6094 73.3047 16.8438C73.6172 17.3359 74.0586 17.582 74.6289 17.582C75.0586 17.582 75.4141 17.4062 75.6953 17.0547C75.9609 16.7109 76.0938 16.2695 76.0938 15.7305V11.9102C75.5938 12.1992 74.9531 12.3984 74.1719 12.5078C73.3125 12.6406 72.8828 13.4922 72.8828 15.0625ZM71.125 17.6992C71.2031 17.6445 71.2422 17.5742 71.2422 17.4883C71.2422 17.3711 71.1875 17.207 71.0781 16.9961C70.6875 16.2773 70.4922 15.6875 70.4922 15.2266C70.4922 14.7656 70.5078 14.4336 70.5391 14.2305C70.5781 14.0273 70.625 13.8555 70.6797 13.7148C70.7422 13.5664 70.8086 13.4375 70.8789 13.3281C70.957 13.2188 71.0234 13.1211 71.0781 13.0352C71.1797 12.8555 71.2305 12.7344 71.2305 12.6719C71.2305 12.6016 71.1953 12.543 71.125 12.4961C70.8047 12.6445 70.5703 12.8203 70.4219 13.0234C70.1562 13.3828 69.9609 13.8477 69.8359 14.418C69.8047 14.582 69.5312 14.7812 69.0156 15.0156C69.5156 15.2422 69.7891 15.4414 69.8359 15.6133C70.1016 16.543 70.5312 17.2383 71.125 17.6992ZM85.4805 18.8594C85.1211 19.1094 84.7109 19.2344 84.25 19.2344C83.7891 19.2344 83.4531 19.1289 83.2422 18.918C83.0391 18.6992 82.9375 18.4922 82.9375 18.2969C82.9375 18.0391 82.9805 17.8516 83.0664 17.7344C83.2383 17.8672 83.457 17.9336 83.7227 17.9336C84.2227 17.9336 84.5469 17.6914 84.6953 17.207V13.6562C84.6953 13.2969 84.625 13.0312 84.4844 12.8594C84.2344 12.5547 83.8281 12.2656 83.2656 11.9922C84.2188 11.5547 84.6953 10.8828 84.6953 9.97656V8.74609C84.6953 8.08203 84.4688 7.72266 84.0156 7.66797C83.8828 7.65234 83.7148 7.64453 83.5117 7.64453C83.3086 7.64453 83.1211 7.71094 82.9492 7.84375C82.8398 7.69531 82.7852 7.54297 82.7852 7.38672C82.7852 7.22266 82.8242 7.04297 82.9023 6.84766C82.9883 6.64453 83.1172 6.45312 83.2891 6.27344C83.6953 5.85156 84.168 5.64062 84.707 5.64062C85.2539 5.64062 85.707 5.72656 86.0664 5.89844C86.4961 5.41406 86.957 5.17188 87.4492 5.17188C88.2148 5.17188 88.5977 5.59375 88.5977 6.4375V8.04297C89.3789 6.12109 90.6211 5.16016 92.3242 5.16016C93.0898 5.16016 93.7109 5.39453 94.1875 5.86328C94.6797 6.33984 94.9258 7 94.9258 7.84375V8.00781C94.9258 8.0625 94.918 8.17578 94.9023 8.34766C94.8867 8.51172 94.8906 8.67969 94.9141 8.85156C94.9453 9.02344 94.9922 9.16406 95.0547 9.27344C95.1406 9.4375 95.3008 9.56641 95.5352 9.66016C95.4805 9.87109 95.3516 10.0625 95.1484 10.2344C94.9531 10.3984 94.7344 10.4805 94.4922 10.4805H94.2695C93.9648 10.8633 93.5391 11.1328 92.9922 11.2891C92.8359 11.3359 92.6641 11.3594 92.4766 11.3594C92.2969 11.3594 92.1367 11.3203 91.9961 11.2422C91.8633 11.1562 91.7891 11.0664 91.7734 10.9727C91.9219 10.9023 91.9961 10.7617 91.9961 10.5508V10.4922C91.9336 10.5078 91.8789 10.5156 91.832 10.5156H91.7148C91.457 10.5156 91.2227 10.418 91.0117 10.2227C90.8086 10.0273 90.6758 9.78125 90.6133 9.48438C91.0352 9.5 91.4023 9.34375 91.7148 9.01562C91.9961 8.72656 92.1367 8.42969 92.1367 8.125C92.1367 7.40625 91.8242 7.04688 91.1992 7.04688C90.6602 7.04688 90.1172 7.47656 89.5703 8.33594C89.0547 9.125 88.7305 9.94141 88.5977 10.7852V17.125C88.6836 17.3984 88.8164 17.6016 88.9961 17.7344C89.1758 17.8672 89.4219 17.9336 89.7344 17.9336C90.0469 17.9336 90.2891 17.8672 90.4609 17.7344C90.5469 17.8516 90.5898 18.0234 90.5898 18.25C90.5898 18.4766 90.4844 18.6992 90.2734 18.918C90.0703 19.1289 89.7227 19.2344 89.2305 19.2344C88.7461 19.2344 88.2812 19.1016 87.8359 18.8359C87.5234 19.1016 87.1445 19.2344 86.6992 19.2344C86.2539 19.2344 85.8477 19.1094 85.4805 18.8594ZM86.4883 13.3047C86.4961 13.0391 86.5 12.8164 86.5 12.6367C86.5078 12.457 86.5117 12.3125 86.5117 12.2031V11.8867C86.5117 11.7695 86.5078 11.6211 86.5 11.4414C86.5 11.2539 86.4961 11.0469 86.4883 10.8203C86.4883 10.5859 86.4844 10.3594 86.4766 10.1406C86.4297 9.32812 86.3398 8.80859 86.207 8.58203C86.082 8.34766 85.9531 8.1875 85.8203 8.10156V8.86328C85.8203 10.1758 85.7891 10.9492 85.7266 11.1836C85.6719 11.4102 85.5781 11.582 85.4453 11.6992C85.3203 11.8086 85.1328 11.9062 84.8828 11.9922C85.3516 12.1562 85.6172 12.3555 85.6797 12.5898C85.7734 12.9648 85.8203 13.8086 85.8203 15.1211V15.8828C86.1797 15.6484 86.3828 15.1719 86.4297 14.4531C86.4688 13.9453 86.4883 13.5625 86.4883 13.3047ZM111.238 18.8477C110.832 19.1055 110.379 19.2344 109.879 19.2344C109.387 19.2344 108.93 19.1055 108.508 18.8477C108.078 19.1055 107.684 19.2344 107.324 19.2344C106.965 19.2344 106.676 19.2031 106.457 19.1406C106.238 19.0859 106.047 19.0078 105.883 18.9062C105.547 18.7031 105.379 18.4492 105.379 18.1445C105.379 17.9883 105.422 17.8516 105.508 17.7344C105.68 17.8672 105.906 17.9336 106.188 17.9336C106.477 17.9336 106.766 17.8594 107.055 17.7109C107.352 17.5625 107.574 17.332 107.723 17.0195V11.3125C107.723 10.9531 107.648 10.6875 107.5 10.5156C107.266 10.2266 106.863 9.94141 106.293 9.66016C106.824 9.41797 107.168 9.20312 107.324 9.01562C107.59 8.71094 107.723 8.36719 107.723 7.98438V2.54688C107.465 2.45312 107.156 2.40625 106.797 2.40625C106.445 2.40625 106.074 2.5 105.684 2.6875C105.293 2.875 104.941 3.14844 104.629 3.50781C103.934 4.32031 103.586 5.38281 103.586 6.69531C103.586 7.45312 103.711 8.01172 103.961 8.37109C103.867 8.56641 103.691 8.66406 103.434 8.66406C103.176 8.66406 102.945 8.60547 102.742 8.48828C102.539 8.37109 102.363 8.21094 102.215 8.00781C101.91 7.60156 101.758 7.16406 101.758 6.69531C101.758 6.22656 101.844 5.82812 102.016 5.5C101.727 5.15625 101.582 4.76953 101.582 4.33984C101.582 3.90234 101.699 3.54297 101.934 3.26172C101.605 2.91016 101.441 2.4375 101.441 1.84375C101.441 1.15625 101.758 0.695312 102.391 0.460938C102.578 0.390625 102.742 0.355469 102.883 0.355469C103.148 0.355469 103.348 0.414062 103.48 0.53125C103.426 0.71875 103.398 0.851562 103.398 0.929688C103.398 1.24219 103.508 1.39844 103.727 1.39844C103.844 1.39844 103.965 1.38281 104.09 1.35156L104.617 1.19922C105.531 0.957031 106.293 0.835938 106.902 0.835938C107.512 0.835938 108.047 0.96875 108.508 1.23438C108.906 0.96875 109.359 0.835938 109.867 0.835938C110.375 0.835938 110.836 0.96875 111.25 1.23438C111.695 0.96875 112.156 0.835938 112.633 0.835938C113.391 0.835938 114.055 0.914063 114.625 1.07031L115.668 1.35156C115.793 1.38281 115.914 1.39844 116.031 1.39844C116.25 1.39844 116.359 1.24219 116.359 0.929688C116.359 0.851562 116.332 0.71875 116.277 0.53125C116.41 0.414062 116.578 0.355469 116.781 0.355469C116.984 0.355469 117.18 0.390625 117.367 0.460938C117.555 0.53125 117.719 0.632813 117.859 0.765625C118.164 1.03906 118.316 1.43359 118.316 1.94922C118.316 2.45703 118.152 2.89453 117.824 3.26172C118.059 3.54297 118.176 3.89844 118.176 4.32812C118.176 4.75781 118.027 5.14844 117.73 5.5C117.91 5.82031 118 6.14062 118 6.46094C118 6.78125 117.961 7.07031 117.883 7.32812C117.805 7.58594 117.691 7.8125 117.543 8.00781C117.223 8.44531 116.82 8.66406 116.336 8.66406C116.07 8.66406 115.891 8.56641 115.797 8.37109C116.047 8.01172 116.172 7.47266 116.172 6.75391C116.172 6.02734 116.074 5.39844 115.879 4.86719C115.691 4.32812 115.441 3.875 115.129 3.50781C114.496 2.77344 113.75 2.40625 112.891 2.40625C112.562 2.40625 112.277 2.45312 112.035 2.54688V7.98438C112.035 8.36719 112.117 8.65234 112.281 8.83984C112.539 9.14453 112.934 9.41797 113.465 9.66016C112.895 9.94141 112.531 10.1719 112.375 10.3516C112.148 10.6328 112.035 10.9531 112.035 11.3125V17.0195C112.176 17.332 112.391 17.5625 112.68 17.7109C112.977 17.8594 113.27 17.9336 113.559 17.9336C113.848 17.9336 114.078 17.8672 114.25 17.7344C114.336 17.8516 114.379 17.9883 114.379 18.1445C114.379 18.293 114.332 18.4336 114.238 18.5664C114.152 18.6992 114.031 18.8125 113.875 18.9062C113.516 19.125 113.094 19.2344 112.609 19.2344C112.133 19.2344 111.676 19.1055 111.238 18.8477ZM108.848 15.8945C109.238 15.7461 109.453 15.2344 109.492 14.3594C109.539 13.4844 109.562 12.2734 109.562 10.7266C109.562 9.17969 109.559 8.15234 109.551 7.64453C109.551 7.12891 109.547 6.71484 109.539 6.40234C109.516 5.48047 109.426 4.92578 109.27 4.73828C109.121 4.54297 108.98 4.41406 108.848 4.35156C108.848 7.07031 108.801 8.61719 108.707 8.99219C108.598 9.30469 108.332 9.52734 107.91 9.66016C108.379 9.82422 108.645 10.0234 108.707 10.2578C108.801 10.6328 108.848 12.0039 108.848 14.3711V15.8945ZM127.961 17.8867C127.25 18.8242 126.184 19.293 124.762 19.293C123.027 19.293 121.727 18.7734 120.859 17.7344C120.484 17.2891 120.227 16.793 120.086 16.2461C120.008 15.918 119.871 15.668 119.676 15.4961C119.48 15.3164 119.238 15.1562 118.949 15.0156C119.512 14.7578 119.914 14.2734 120.156 13.5625C120.414 12.8125 120.844 12.2695 121.445 11.9336C122.094 11.582 122.809 11.3984 123.59 11.3828C124.371 11.3594 124.949 11.332 125.324 11.3008C125.699 11.2695 126.031 11.2188 126.32 11.1484C126.859 11.0234 127.281 10.793 127.586 10.457V8.69922C127.586 7.92578 127.426 7.35938 127.105 7C126.793 6.64062 126.312 6.46094 125.664 6.46094C125.023 6.46094 124.547 6.58203 124.234 6.82422C123.93 7.05859 123.777 7.375 123.777 7.77344C123.777 8.38281 124.09 8.67969 124.715 8.66406C124.59 9.27344 124.262 9.57812 123.73 9.57812C123.574 9.57812 123.422 9.55078 123.273 9.49609V9.53125C123.273 9.73438 123.367 9.86328 123.555 9.91797C123.359 10.2148 123.031 10.3594 122.57 10.3516C122.109 10.3438 121.75 10.0977 121.492 9.61328C121.375 9.64453 121.238 9.66016 121.082 9.66016C120.934 9.66016 120.766 9.60938 120.578 9.50781C120.398 9.40625 120.254 9.26562 120.145 9.08594C120.535 8.85156 120.773 8.48828 120.859 7.99609C120.953 7.39453 121.434 6.78516 122.301 6.16797C123.348 5.42578 124.684 5.05469 126.309 5.05469C129.004 5.05469 130.648 5.88281 131.242 7.53906C131.438 8.09375 131.535 8.75 131.535 9.50781V10.457C131.535 10.8398 131.629 11.1523 131.816 11.3945C132.012 11.6367 132.34 11.8359 132.801 11.9922C132.309 12.2188 131.992 12.4219 131.852 12.6016C131.641 12.875 131.535 13.1875 131.535 13.5391V17.0547C131.762 17.6406 132.086 17.9336 132.508 17.9336C132.773 17.9336 132.992 17.8672 133.164 17.7344C133.273 17.8828 133.328 18.0703 133.328 18.2969C133.328 18.5156 133.215 18.7266 132.988 18.9297C132.77 19.1328 132.438 19.2344 131.992 19.2344C131.547 19.2344 131.133 19.1094 130.75 18.8594C130.414 19.1094 130.113 19.2344 129.848 19.2344C129.59 19.2344 129.363 19.207 129.168 19.1523C128.98 19.1055 128.805 19.0273 128.641 18.918C128.273 18.6758 128.047 18.332 127.961 17.8867ZM128.699 15.8945C129.152 15.7148 129.391 14.8516 129.414 13.3047C129.414 12.9766 129.414 12.6016 129.414 12.1797C129.414 11.7578 129.41 11.3984 129.402 11.1016C129.402 10.7969 129.398 10.5078 129.391 10.2344C129.359 9.25 129.27 8.66406 129.121 8.47656C128.973 8.28125 128.832 8.15234 128.699 8.08984V15.8945ZM124.375 15.0625C124.375 15.3906 124.41 15.7109 124.48 16.0234C124.551 16.3359 124.656 16.6094 124.797 16.8438C125.109 17.3359 125.551 17.582 126.121 17.582C126.551 17.582 126.906 17.4062 127.188 17.0547C127.453 16.7109 127.586 16.2695 127.586 15.7305V11.9102C127.086 12.1992 126.445 12.3984 125.664 12.5078C124.805 12.6406 124.375 13.4922 124.375 15.0625ZM122.617 17.6992C122.695 17.6445 122.734 17.5742 122.734 17.4883C122.734 17.3711 122.68 17.207 122.57 16.9961C122.18 16.2773 121.984 15.6875 121.984 15.2266C121.984 14.7656 122 14.4336 122.031 14.2305C122.07 14.0273 122.117 13.8555 122.172 13.7148C122.234 13.5664 122.301 13.4375 122.371 13.3281C122.449 13.2188 122.516 13.1211 122.57 13.0352C122.672 12.8555 122.723 12.7344 122.723 12.6719C122.723 12.6016 122.688 12.543 122.617 12.4961C122.297 12.6445 122.062 12.8203 121.914 13.0234C121.648 13.3828 121.453 13.8477 121.328 14.418C121.297 14.582 121.023 14.7812 120.508 15.0156C121.008 15.2422 121.281 15.4414 121.328 15.6133C121.594 16.543 122.023 17.2383 122.617 17.6992ZM142.352 17.2891C142.5 17.1328 142.617 16.9375 142.703 16.7031C142.789 16.4609 142.832 16.2109 142.832 15.9531C142.832 15.6875 142.816 15.4453 142.785 15.2266C142.84 15.1094 142.988 15.0195 143.23 14.957C143.473 14.8867 143.633 14.8516 143.711 14.8516C144.008 14.8516 144.246 14.9648 144.426 15.1914C144.605 15.4102 144.695 15.7188 144.695 16.1172C144.695 16.5078 144.578 16.8945 144.344 17.2773C144.117 17.6602 143.812 18 143.43 18.2969C142.578 18.9609 141.586 19.293 140.453 19.293C138.297 19.293 136.867 18.4766 136.164 16.8438C135.906 16.2422 135.777 15.4883 135.777 14.582V13.1523C135.777 12.7852 135.375 12.3984 134.57 11.9922C135.375 11.5312 135.777 10.9102 135.777 10.1289V8.74609C135.777 7.85547 135.414 7.41016 134.688 7.41016C134.422 7.41016 134.203 7.47656 134.031 7.60938C133.922 7.46094 133.867 7.30859 133.867 7.15234C133.867 6.98828 133.895 6.8125 133.949 6.625C134.012 6.42969 134.117 6.25391 134.266 6.09766C134.641 5.69141 135.223 5.55078 136.012 5.67578V5.30078C136.012 4.48047 136.219 3.75781 136.633 3.13281C137 2.57031 137.324 2.28906 137.605 2.28906C137.895 2.28906 138.117 2.38672 138.273 2.58203C138.406 1.96484 138.582 1.51953 138.801 1.24609C139.02 0.972656 139.332 0.835938 139.738 0.835938V5.72266H143.547C143.609 5.84766 143.641 6.05859 143.641 6.35547C143.641 6.64453 143.527 6.87891 143.301 7.05859C143.074 7.23047 142.801 7.31641 142.48 7.31641H139.738V15.25C139.738 16.6094 140.047 17.4062 140.664 17.6406C140.844 17.7031 141.035 17.7344 141.238 17.7344C141.449 17.7344 141.648 17.6992 141.836 17.6289C142.031 17.5508 142.203 17.4375 142.352 17.2891ZM136.902 15.8945C137.27 15.6602 137.477 15.1719 137.523 14.4297C137.555 13.8984 137.57 13.4844 137.57 13.1875C137.578 12.8906 137.582 12.6523 137.582 12.4727C137.59 12.2852 137.594 12.1406 137.594 12.0391V11.5703C137.594 11.3438 137.59 11.0547 137.582 10.7031C137.582 10.3438 137.578 9.95703 137.57 9.54297C137.57 9.12109 137.562 8.71875 137.547 8.33594C137.523 7.41406 137.488 6.85156 137.441 6.64844C137.348 6.19531 137.168 5.88281 136.902 5.71094V9.36719C136.902 10.4531 136.883 11.0273 136.844 11.0898C136.812 11.1523 136.785 11.2266 136.762 11.3125C136.691 11.5469 136.426 11.7422 135.965 11.8984C136.434 12.0625 136.699 12.2617 136.762 12.4961C136.855 12.8711 136.902 13.75 136.902 15.1328V15.8945ZM152.852 17.2891C153 17.1328 153.117 16.9375 153.203 16.7031C153.289 16.4609 153.332 16.2109 153.332 15.9531C153.332 15.6875 153.316 15.4453 153.285 15.2266C153.34 15.1094 153.488 15.0195 153.73 14.957C153.973 14.8867 154.133 14.8516 154.211 14.8516C154.508 14.8516 154.746 14.9648 154.926 15.1914C155.105 15.4102 155.195 15.7188 155.195 16.1172C155.195 16.5078 155.078 16.8945 154.844 17.2773C154.617 17.6602 154.312 18 153.93 18.2969C153.078 18.9609 152.086 19.293 150.953 19.293C148.797 19.293 147.367 18.4766 146.664 16.8438C146.406 16.2422 146.277 15.4883 146.277 14.582V13.1523C146.277 12.7852 145.875 12.3984 145.07 11.9922C145.875 11.5312 146.277 10.9102 146.277 10.1289V8.74609C146.277 7.85547 145.914 7.41016 145.188 7.41016C144.922 7.41016 144.703 7.47656 144.531 7.60938C144.422 7.46094 144.367 7.30859 144.367 7.15234C144.367 6.98828 144.395 6.8125 144.449 6.625C144.512 6.42969 144.617 6.25391 144.766 6.09766C145.141 5.69141 145.723 5.55078 146.512 5.67578V5.30078C146.512 4.48047 146.719 3.75781 147.133 3.13281C147.5 2.57031 147.824 2.28906 148.105 2.28906C148.395 2.28906 148.617 2.38672 148.773 2.58203C148.906 1.96484 149.082 1.51953 149.301 1.24609C149.52 0.972656 149.832 0.835938 150.238 0.835938V5.72266H154.047C154.109 5.84766 154.141 6.05859 154.141 6.35547C154.141 6.64453 154.027 6.87891 153.801 7.05859C153.574 7.23047 153.301 7.31641 152.98 7.31641H150.238V15.25C150.238 16.6094 150.547 17.4062 151.164 17.6406C151.344 17.7031 151.535 17.7344 151.738 17.7344C151.949 17.7344 152.148 17.6992 152.336 17.6289C152.531 17.5508 152.703 17.4375 152.852 17.2891ZM147.402 15.8945C147.77 15.6602 147.977 15.1719 148.023 14.4297C148.055 13.8984 148.07 13.4844 148.07 13.1875C148.078 12.8906 148.082 12.6523 148.082 12.4727C148.09 12.2852 148.094 12.1406 148.094 12.0391V11.5703C148.094 11.3438 148.09 11.0547 148.082 10.7031C148.082 10.3438 148.078 9.95703 148.07 9.54297C148.07 9.12109 148.062 8.71875 148.047 8.33594C148.023 7.41406 147.988 6.85156 147.941 6.64844C147.848 6.19531 147.668 5.88281 147.402 5.71094V9.36719C147.402 10.4531 147.383 11.0273 147.344 11.0898C147.312 11.1523 147.285 11.2266 147.262 11.3125C147.191 11.5469 146.926 11.7422 146.465 11.8984C146.934 12.0625 147.199 12.2617 147.262 12.4961C147.355 12.8711 147.402 13.75 147.402 15.1328V15.8945ZM158.477 17.6875C157.984 17.1875 157.594 16.5938 157.305 15.9062C157.023 15.2188 156.852 14.6289 156.789 14.1367C156.727 13.6445 156.672 13.3281 156.625 13.1875C156.586 13.0469 156.516 12.9141 156.414 12.7891C156.211 12.5312 155.84 12.2695 155.301 12.0039C155.98 11.6992 156.414 11.2109 156.602 10.5391C156.656 10.3516 156.699 10.1641 156.73 9.97656C156.934 8.57812 157.609 7.41016 158.758 6.47266C159.906 5.52734 161.246 5.05469 162.777 5.05469C164.371 5.05469 165.742 5.53125 166.891 6.48438C168.008 7.41406 168.668 8.57812 168.871 9.97656C168.941 10.4688 169.047 10.8281 169.188 11.0547C169.453 11.4688 169.824 11.7852 170.301 12.0039C169.77 12.2617 169.426 12.4883 169.27 12.6836C169.059 12.957 168.926 13.2812 168.871 13.6562C168.621 15.5 167.98 16.9023 166.949 17.8633C165.918 18.8164 164.543 19.293 162.824 19.293C160.98 19.293 159.531 18.7578 158.477 17.6875ZM164.793 9.63672C164.793 7.68359 164.129 6.70703 162.801 6.70703C161.473 6.70703 160.809 7.68359 160.809 9.63672V14.8281C160.809 16.7031 161.469 17.6406 162.789 17.6406C164.125 17.6406 164.793 16.7031 164.793 14.8281V9.63672ZM165.918 15.8945C166.309 15.7461 166.523 15.2344 166.562 14.3594C166.609 13.4844 166.633 12.8359 166.633 12.4141C166.633 11.9844 166.629 11.6289 166.621 11.3477C166.621 11.0586 166.617 10.7617 166.609 10.457C166.578 9.31641 166.488 8.65234 166.34 8.46484C166.191 8.27734 166.051 8.15234 165.918 8.08984V15.8945ZM158.898 15.8945C159.008 15.8086 159.062 15.7109 159.062 15.6016C159.062 15.4297 159.027 15.2109 158.957 14.9453C158.637 13.7188 158.477 12.8672 158.477 12.3906C158.477 11.9062 158.492 11.5312 158.523 11.2656C158.555 10.9922 158.594 10.7188 158.641 10.4453C158.742 9.91406 158.848 9.44531 158.957 9.03906C159.027 8.77344 159.062 8.59375 159.062 8.5C159.062 8.3125 159.008 8.17578 158.898 8.08984C158.57 8.48047 158.32 9.00391 158.148 9.66016C157.977 10.3164 157.836 10.8945 157.727 11.3945C157.688 11.6055 157.457 11.8086 157.035 12.0039C157.457 12.1992 157.688 12.3945 157.727 12.5898C158.016 13.9102 158.254 14.75 158.441 15.1094C158.629 15.4688 158.781 15.7305 158.898 15.8945ZM174.602 17.6875C174.109 17.1875 173.719 16.5938 173.43 15.9062C173.148 15.2188 172.977 14.6289 172.914 14.1367C172.852 13.6445 172.797 13.3281 172.75 13.1875C172.711 13.0469 172.641 12.9141 172.539 12.7891C172.336 12.5312 171.965 12.2695 171.426 12.0039C172.105 11.6992 172.539 11.2109 172.727 10.5391C172.781 10.3516 172.824 10.1641 172.855 9.97656C173.059 8.57812 173.734 7.41016 174.883 6.47266C176.031 5.52734 177.371 5.05469 178.902 5.05469C180.496 5.05469 181.867 5.53125 183.016 6.48438C184.133 7.41406 184.793 8.57812 184.996 9.97656C185.066 10.4688 185.172 10.8281 185.312 11.0547C185.578 11.4688 185.949 11.7852 186.426 12.0039C185.895 12.2617 185.551 12.4883 185.395 12.6836C185.184 12.957 185.051 13.2812 184.996 13.6562C184.746 15.5 184.105 16.9023 183.074 17.8633C182.043 18.8164 180.668 19.293 178.949 19.293C177.105 19.293 175.656 18.7578 174.602 17.6875ZM180.918 9.63672C180.918 7.68359 180.254 6.70703 178.926 6.70703C177.598 6.70703 176.934 7.68359 176.934 9.63672V14.8281C176.934 16.7031 177.594 17.6406 178.914 17.6406C180.25 17.6406 180.918 16.7031 180.918 14.8281V9.63672ZM182.043 15.8945C182.434 15.7461 182.648 15.2344 182.688 14.3594C182.734 13.4844 182.758 12.8359 182.758 12.4141C182.758 11.9844 182.754 11.6289 182.746 11.3477C182.746 11.0586 182.742 10.7617 182.734 10.457C182.703 9.31641 182.613 8.65234 182.465 8.46484C182.316 8.27734 182.176 8.15234 182.043 8.08984V15.8945ZM175.023 15.8945C175.133 15.8086 175.188 15.7109 175.188 15.6016C175.188 15.4297 175.152 15.2109 175.082 14.9453C174.762 13.7188 174.602 12.8672 174.602 12.3906C174.602 11.9062 174.617 11.5312 174.648 11.2656C174.68 10.9922 174.719 10.7188 174.766 10.4453C174.867 9.91406 174.973 9.44531 175.082 9.03906C175.152 8.77344 175.188 8.59375 175.188 8.5C175.188 8.3125 175.133 8.17578 175.023 8.08984C174.695 8.48047 174.445 9.00391 174.273 9.66016C174.102 10.3164 173.961 10.8945 173.852 11.3945C173.812 11.6055 173.582 11.8086 173.16 12.0039C173.582 12.1992 173.812 12.3945 173.852 12.5898C174.141 13.9102 174.379 14.75 174.566 15.1094C174.754 15.4688 174.906 15.7305 175.023 15.8945Z" fill="#BF9456"/>
</svg>
