<svg width="138" height="50" viewBox="0 0 138 50" fill="none" xmlns="http://www.w3.org/2000/svg">
<g clip-path="url(#clip0_51_20)">
<path d="M134.614 11.4203C131.487 7.35759 127.07 5.53417 122.265 4.54249C113.785 2.81504 105.596 4.38254 97.5995 7.16565C88.9906 10.1407 80.9299 14.2674 73.0626 18.714C70.7734 19.9935 69.0645 20.2815 67.0654 18.554C66.7752 18.2981 66.1948 18.3941 65.7112 18.3301C65.679 18.49 65.6467 18.682 65.5822 18.8419C66.485 19.5457 67.3556 20.2815 68.4519 21.1452C67.4523 21.689 66.6785 22.1688 65.8724 22.5847C61.8098 24.6321 57.6827 26.6794 53.5234 28.6948C44.2051 33.2373 34.6934 36.9161 23.9565 36.3723C18.4107 36.0844 13.5743 34.3889 9.35046 30.8701C4.96541 27.2232 3.57896 21.9129 5.4813 16.5706C5.67475 16.0268 5.83597 15.483 6.02943 14.9072C5.35232 14.5873 4.77195 14.2994 4.12709 13.9795C2.45046 17.1145 1.06401 20.1855 1.41868 23.7683C2.12803 31.3179 8.09298 37.1081 16.3149 38.5476C25.3752 40.1471 34.0486 38.7715 42.5607 35.7325C51.5243 32.5335 59.9075 28.087 68.2262 23.5124C69.6771 22.7127 70.7089 22.6807 72.1276 23.5124C82.6065 29.5265 93.279 35.0927 105.112 38.0998C105.66 38.2277 106.112 38.8035 106.531 39.2514C109.304 42.2584 112.044 45.3294 114.85 48.3365C115.398 48.9443 116.204 49.2962 117.203 49.9999C119.202 46.737 121.04 43.634 122.975 40.595C123.297 40.0831 123.91 39.6353 124.49 39.4113C129.23 37.7799 133.002 35.0287 135.55 30.6781C139.096 24.696 138.774 16.7946 134.614 11.4203ZM133.679 25.8477C130.907 34.197 125.457 38.0358 116.558 38.0038C115.978 38.0038 115.43 38.0038 114.85 38.0038C114.721 40.403 115.107 40.7869 117.235 40.6269C118.364 40.563 119.46 40.435 120.589 40.339C120.685 40.339 120.75 40.435 121.201 40.7229C119.815 42.7063 118.461 44.7216 117.042 46.673C116.881 46.8649 116.075 46.9289 115.849 46.705C112.496 43.7939 109.271 40.6909 107.434 36.5322C106.982 35.5406 106.918 34.229 107.111 33.1413C107.563 30.7741 109.755 30.0063 111.786 31.3819C112.754 32.0537 113.689 33.2373 114.656 33.2693C115.43 33.3013 116.236 31.8937 117.042 31.19C117.913 30.4222 118.88 29.7184 120.073 30.3262C121.492 31.03 122.007 32.4056 122.136 33.8771C122.201 34.4529 122.072 35.0287 122.007 35.8285C122.588 35.8285 123.039 35.8285 123.491 35.8285C124.393 32.5975 123.491 29.5905 121.072 28.5668C118.912 27.6391 117.397 27.5431 114.527 31.5418C112.883 29.4305 110.948 27.959 108.078 29.0786C105.402 30.1023 104.274 32.0537 104.693 35.0287C93.0855 31.7018 82.3808 27.0633 71.7729 21.2731C73.2561 20.3774 74.5458 19.5457 75.8677 18.8419C83.4771 14.7792 91.1832 10.9085 99.5663 8.5732C107.111 6.49386 114.721 5.47019 122.459 7.45356C126.07 8.38126 129.23 10.2047 131.745 12.9238C135.259 16.7946 135.227 21.2411 133.679 25.8477Z" fill="#BF9456"/>
<path d="M50.4603 11.9642C51.1052 10.8126 51.621 9.69292 52.3949 8.73323C52.7173 8.31736 53.5234 8.25338 54.136 8.02945C54.2005 8.60527 54.4584 9.30904 54.2327 9.78889C53.7813 10.9085 53.1042 11.9322 52.4916 13.0199C53.0075 13.3398 53.3944 13.5957 53.8781 13.8836C54.5552 12.7319 55.1033 11.5483 55.8771 10.5566C56.1995 10.1408 57.0056 10.1088 57.586 9.91685C57.6182 10.4607 57.8439 11.1005 57.6505 11.5803C57.1991 12.7 56.5542 13.7556 55.9416 14.9073C56.4575 15.1632 56.8444 15.3551 57.3925 15.643C58.1341 14.2355 58.9402 12.9559 59.5206 11.6123C60.1654 10.1408 59.3916 8.95715 57.8117 8.76522C57.3925 8.70124 56.9734 8.76522 56.522 8.76522C55.9738 7.96547 55.2645 7.42165 54.4907 6.97379C53.7168 6.52593 52.9108 6.20604 51.9757 5.75818C51.0084 7.51762 50.0411 9.27705 48.9771 11.1964C49.5575 11.5163 49.9766 11.7083 50.4603 11.9642Z" fill="#BF9456"/>
<path d="M44.1406 9.62894C45.2369 9.98082 46.3977 10.2048 47.5907 10.4927C48.0421 9.24506 48.4935 7.96547 48.9449 6.65389C49.364 5.50226 49.1706 4.57455 47.9776 3.96675C46.2042 3.03905 45.2047 3.13501 43.9472 4.67052C44.8822 4.67052 45.5916 4.54256 46.172 4.70251C46.6878 4.86246 47.0748 5.3743 47.5262 5.72619C47.4294 5.85414 47.3005 6.01409 47.2037 6.14205C46.3654 6.07807 45.4949 6.01409 44.6565 5.9821C43.6248 5.95011 42.8509 6.27001 42.6575 7.38965C42.5285 8.60526 43.1411 9.30904 44.1406 9.62894ZM46.9135 6.84583C46.6878 8.44532 46.1075 8.92516 45.1079 8.66924C44.7855 8.57327 44.5921 7.99746 44.3664 7.67756C45.1402 7.42164 45.8818 7.19771 46.9135 6.84583Z" fill="#BF9456"/>
<path d="M59.7785 17.3385C60.5523 18.906 62.0033 19.4498 64.0023 18.4261C63.4542 18.2022 62.9061 17.8183 62.3257 17.7223C60.9715 17.4664 60.6813 16.7626 61.6164 15.547C62.6481 16.3468 63.7121 17.1465 64.7439 17.9463C66.1626 16.2188 66.2916 14.8113 65.2598 13.6276C64.1313 12.38 62.6159 12.2201 61.2294 13.1798C59.7785 14.1395 59.1336 16.0589 59.7785 17.3385ZM62.3579 14.1395C62.9061 14.1715 63.6477 13.9795 63.9701 14.2674C64.357 14.5873 64.357 15.3231 64.5505 15.8989C64.3892 15.9949 64.228 16.0589 64.0346 16.1548C63.422 15.675 62.8416 15.1951 62.229 14.7473C62.2612 14.5234 62.3257 14.3314 62.3579 14.1395Z" fill="#BF9456"/>
<path d="M8.47991 13.9475C8.96355 13.4037 9.28598 13.0518 9.8986 12.348C6.19065 10.8765 6.4486 7.3256 5.28785 4.47852C2.7729 6.14198 5.38458 7.83744 4.93318 9.40494C3.35327 9.88479 1.28972 7.6455 0 10.3007C3.12757 10.9724 6.48084 10.8765 8.47991 13.9475Z" fill="#BF9456"/>
<path d="M13.1229 9.50098C15.122 9.53297 16.5729 8.22139 16.6051 6.33399C16.6374 4.28665 15.3477 2.91109 13.4453 2.8791C11.414 2.84711 9.99533 4.19068 10.0276 6.07808C10.0598 7.99746 11.3495 9.437 13.1229 9.50098ZM11.6397 5.63022C11.6397 5.56624 11.672 5.53425 11.672 5.47027C11.8332 4.86246 12.4458 4.4466 13.0584 4.31864C14.0257 4.09471 15.122 5.40629 15.0575 6.55792C14.9608 9.18108 11.2851 7.80552 11.6397 5.63022Z" fill="#BF9456"/>
<path d="M20.7322 6.8778C22.1187 6.81382 23.4729 6.36596 24.8916 6.04606C24.5692 4.03071 24.2145 2.04734 23.8598 0C23.2794 0.0959693 22.828 0.159949 22.3121 0.223928C22.4411 1.05566 22.6023 1.8874 22.6991 2.71913C22.7958 3.48688 22.8603 4.12668 22.3444 4.79846C22.1832 5.02239 21.9897 5.24632 21.8285 5.47025C21.7963 5.50224 21.764 5.53423 21.6995 5.56622C21.5383 5.59821 21.0869 5.15035 20.9902 5.05438C20.7645 4.86244 20.5388 4.60653 20.4421 4.31862C20.0874 3.16699 19.9584 1.95138 19.7005 0.639795C19.1201 0.767754 18.7009 0.863723 18.0883 0.991683C18.4107 2.59117 18.6042 4.12668 19.0879 5.56622C19.2813 6.14203 20.1841 6.90979 20.7322 6.8778Z" fill="#BF9456"/>
<path d="M37.8533 3.51888C38.0467 3.07103 38.885 2.91108 39.4332 2.62317C39.6589 3.13501 40.1103 3.67883 40.078 4.15868C39.9491 5.40628 39.5944 6.62189 39.3042 7.8375C40.3037 8.34934 40.9163 8.38133 41.1098 7.16572C41.271 6.01408 41.5934 4.89444 41.8191 3.74281C42.0448 2.59118 41.529 1.85542 40.4327 1.5995C39.2075 1.34358 37.9822 1.21562 36.5635 1.02368C36.1121 2.97506 35.6607 4.92643 35.1771 6.97378C35.7897 7.06975 36.2411 7.13373 36.7248 7.22969C37.0794 5.91811 37.3374 4.67051 37.8533 3.51888Z" fill="#BF9456"/>
<path d="M27.6645 6.26997C27.9224 6.01405 28.3416 5.75814 28.3738 5.47023C28.5028 4.70247 28.4706 3.87074 28.535 3.071C28.5995 2.1113 28.7607 1.27957 30.0827 1.31156C30.4051 1.31156 30.7276 0.735743 31.05 0.415845C30.9533 0.319876 30.8888 0.191917 30.7921 0.0959473C29.5346 0.0959473 28.2771 0.0959473 26.7939 0.0959473C26.7939 1.88737 26.7617 3.64681 26.8262 5.37426C26.8584 5.72615 27.3743 5.98206 27.6645 6.26997Z" fill="#BF9456"/>
</g>
<defs>
<clipPath id="clip0_51_20">
<rect width="138" height="50" fill="white"/>
</clipPath>
</defs>
</svg>
