<svg width="84" height="93" viewBox="0 0 84 93" fill="none" xmlns="http://www.w3.org/2000/svg">
<g clip-path="url(#clip0_55_76)">
<path d="M77.2921 34.8801C77.2921 30.112 79.8887 26.7184 83.9567 24.3129C81.5332 18.2561 77.6816 13.5309 72.6182 9.79373C60.8037 0.987723 47.4312 -1.46078 33.1066 0.772943C22.2442 2.49119 12.7666 7.04454 5.62597 15.5928C3.46213 18.1702 1.8609 21.2201 0 24.0981C9.34776 29.3388 9.00155 40.5503 0.346213 45.5762C4.58733 55.1124 12.0309 61.2552 21.5951 65.6796C21.6816 64.0043 21.7249 62.8445 21.8114 61.5988C29.255 65.2071 29.2117 68.8154 21.7682 75.7743C23.3694 78.9101 25.0572 82.0459 26.5286 85.3106C27.3941 87.2436 28.5626 87.6302 29.9042 87.2007C30.9428 85.1388 31.7651 83.4205 32.6306 81.7452C32.9335 81.7452 33.2365 81.7452 33.5394 81.7452C32.2844 87.5873 36.8717 89.6062 40.1607 92.9997C40.8532 90.2076 41.4158 87.845 42.0216 85.4824C42.7573 86.6852 43.0603 87.8879 43.3632 89.0907C43.6661 90.2935 43.9691 91.4963 44.3153 92.9997C46.0896 91.3244 47.7342 90.0787 48.9459 88.5323C50.0711 87.0718 50.7635 85.2247 51.8022 83.2057C52.5811 84.3226 53.5332 85.6542 54.7883 87.4584C55.3508 87.2007 56.8223 87.0288 57.255 86.2556C59.2025 82.8621 60.847 79.2967 62.6646 75.6884C59.7218 73.3258 56.2597 71.5217 56.9954 67.269C57.5147 64.305 59.6785 62.5438 62.5348 61.2122C62.6213 62.7586 62.7079 64.0903 62.7944 65.7226C72.4884 61.384 79.8887 55.1554 84.0866 45.4903C79.7156 42.9559 77.2921 39.5623 77.2921 34.8801ZM9.99691 46.4783C15.017 43.0847 17.9165 38.6602 15.8825 31.8732C24.4946 35.4385 28.779 42.3545 33.2365 49.1415C25.4467 53.3942 15.493 51.9766 9.99691 46.4783ZM47.2148 64.6487C46.0031 66.1522 44.6182 67.4838 43.3199 68.9443C42.4111 69.9323 41.6754 69.8034 40.8532 68.8584C39.5981 67.4838 38.2998 66.1522 37.0881 64.7346C36.7852 64.348 36.5688 63.5318 36.7419 63.1023C38.3864 59.6658 40.1607 56.2723 42.1082 52.3632C44.0556 56.2293 45.7867 59.5799 47.4312 63.0164C47.6476 63.4459 47.5178 64.2621 47.2148 64.6487ZM50.9799 49.1845C55.3941 42.3545 59.592 35.3956 67.9876 31.9591C67.6847 40.5503 68.1607 41.5813 73.9598 46.3923C70.3246 51.8048 58.3369 53.3512 50.9799 49.1845Z" fill="#BF9456"/>
</g>
<defs>
<clipPath id="clip0_55_76">
<rect width="84" height="93" fill="white"/>
</clipPath>
</defs>
</svg>
