<svg width="44" height="44" viewBox="0 0 44 44" fill="none" xmlns="http://www.w3.org/2000/svg">
<g clip-path="url(#clip0_96_99)">
<path d="M21.9963 3.6665L22.2127 3.67934L22.3208 3.694L22.4327 3.71784L22.6362 3.78017C22.7767 3.83199 22.9103 3.90095 23.034 3.9855L23.2247 4.13584L23.6922 4.5355C27.3906 7.60737 32.0647 9.25689 36.872 9.18667L37.499 9.16834C37.9089 9.14964 38.3133 9.269 38.6473 9.50732C38.9814 9.74564 39.2258 10.0891 39.3415 10.4828C40.2424 13.5474 40.5181 16.7618 40.1521 19.935C39.7862 23.1082 38.7862 26.1755 37.2114 28.9545C35.6367 31.7336 33.5193 34.1678 30.9853 36.1124C28.4512 38.057 25.5521 39.4724 22.4602 40.2745C22.1584 40.3528 21.8416 40.3528 21.5398 40.2745C18.4478 39.4726 15.5484 38.0574 13.0142 36.1129C10.4799 34.1683 8.36235 31.7342 6.78741 28.9551C5.21247 26.176 4.21227 23.1086 3.84623 19.9353C3.48019 16.762 3.7558 13.5475 4.65667 10.4828C4.77237 10.0891 5.0168 9.74564 5.35085 9.50732C5.6849 9.269 6.08924 9.14964 6.49917 9.16834C11.5178 9.39775 16.4414 7.74565 20.306 4.5355L20.7882 4.123L20.9642 3.9855C21.0878 3.90095 21.2214 3.83199 21.362 3.78017L21.5673 3.71784C21.6392 3.70048 21.712 3.68762 21.7855 3.67934L21.9963 3.6665ZM22 16.4998C21.0749 16.4995 20.184 16.8489 19.5057 17.4779C18.8274 18.1069 18.4119 18.9691 18.3425 19.8915L18.3333 20.1665L18.3425 20.4415C18.3877 21.0366 18.5775 21.6117 18.8954 22.1168C19.2133 22.6219 19.6497 23.0418 20.1667 23.34V26.5832L20.1795 26.7977C20.2347 27.2617 20.465 27.6871 20.8233 27.987C21.1816 28.2869 21.641 28.4387 22.1074 28.4113C22.5739 28.3839 23.0123 28.1795 23.3331 27.8397C23.6539 27.4999 23.8328 27.0505 23.8333 26.5832L23.8352 23.3418C24.5343 22.9382 25.0806 22.315 25.3894 21.5692C25.6983 20.8233 25.7523 19.9963 25.5432 19.2166C25.334 18.4369 24.8734 17.748 24.2328 17.2567C23.5921 16.7655 22.8073 16.4995 22 16.4998Z" fill="#BF9456"/>
</g>
<defs>
<clipPath id="clip0_96_99">
<rect width="44" height="44" fill="white"/>
</clipPath>
</defs>
</svg>
