<svg width="67" height="96" viewBox="0 0 67 96" fill="none" xmlns="http://www.w3.org/2000/svg">
<g clip-path="url(#clip0_53_49)">
<path d="M55.6397 44.4948C55.6397 61.7103 55.6397 78.7562 55.6397 95.9718C40.9649 95.9718 26.2901 95.9718 11.4736 95.9718C11.4736 78.841 11.4736 61.7386 11.4736 44.4948C26.1484 44.4948 40.7383 44.4948 55.6397 44.4948ZM39.1801 62.9258C39.0668 60.834 39.0101 59.1379 38.9252 57.4983C35.1573 57.4983 31.6727 57.4983 27.9899 57.4983C27.9899 59.3075 27.9899 60.947 27.9899 62.7562C26.0918 62.8693 24.3636 62.9541 22.6355 63.0389C22.6355 66.7421 22.6355 70.2757 22.6355 74.1202C24.5053 74.1202 26.2051 74.1202 27.8765 74.1202C27.8765 75.9859 27.8765 77.5407 27.8765 78.6149C24.9586 78.2757 22.0973 77.9082 19.2359 77.682C17.5645 77.5407 16.8562 78.5018 16.9129 80.1697C16.9979 84.3251 20.6524 88.1979 25.0152 88.6502C25.9784 88.7633 26.9416 88.8198 27.8765 88.9046C27.9899 90.2333 28.0748 91.2792 28.1882 92.523C30.0863 92.523 31.8144 92.523 33.5708 92.523C35.3556 92.523 37.1687 92.523 38.9535 92.523C39.0668 91.0813 39.1518 90.0354 39.2651 88.8764C40.3983 88.7916 41.3899 88.735 42.3814 88.622C46.4326 88.1131 49.8038 84.5796 50.1721 80.622C50.3704 78.6432 49.6905 77.4559 47.5658 77.6538C44.7894 77.9082 42.0414 78.3039 39.2368 78.6149C39.2368 77.3993 39.2368 75.788 39.2368 74.0637C41.0782 73.9788 42.8063 73.894 44.5061 73.8375C44.5061 70.1061 44.5061 66.629 44.5061 62.8976C42.7214 62.9258 41.0782 62.9258 39.1801 62.9258ZM49.4072 46.4453C38.7268 51.4205 28.1882 50.6008 17.6495 46.5018C17.1112 47.6326 16.6579 48.5654 16.2047 49.5266C25.8934 54.8693 42.863 55.0389 50.8803 49.3569C50.3987 48.4524 49.9738 47.576 49.4072 46.4453ZM15.1848 57.4417C15.1848 58.5725 15.1848 59.675 15.1848 60.834C18.1877 60.834 21.1057 60.834 24.0237 60.834C24.0237 59.6184 24.0237 58.5725 24.0237 57.4417C20.9924 57.4417 18.1877 57.4417 15.1848 57.4417ZM51.9285 60.9188C51.9285 59.6467 51.9285 58.6008 51.9285 57.5548C48.8406 57.5548 45.9226 57.5548 42.8347 57.5548C42.8913 58.8269 42.948 59.8446 43.0047 60.9188C46.0926 60.9188 48.8973 60.9188 51.9285 60.9188ZM18.471 64.8198C17.2812 64.8198 16.2613 64.8198 15.1564 64.8198C15.1564 66.0637 15.1564 67.1661 15.1564 68.2403C16.3746 68.2403 17.3945 68.2403 18.471 68.2403C18.471 67.0248 18.471 65.9789 18.471 64.8198ZM48.6423 64.8198C48.6423 66.0637 48.6423 67.1661 48.6423 68.2403C49.8888 68.2403 50.9087 68.2403 51.9569 68.2403C51.9569 67.0248 51.9569 65.9506 51.9569 64.8198C50.7953 64.8198 49.7471 64.8198 48.6423 64.8198Z" fill="#BF9456"/>
<path d="M18.8393 11.0813C28.6698 11.0813 38.3302 11.0813 48.2173 11.0813C48.2173 20.8339 48.2173 30.5301 48.2173 40.4241C38.5002 40.4241 28.7831 40.4241 18.8393 40.4241C18.8393 30.7562 18.8393 21.0601 18.8393 11.0813ZM22.5505 36.8057C29.9729 36.8057 37.197 36.8057 44.5061 36.8057C44.5061 35.6184 44.5061 34.5725 44.5061 33.4135C37.1687 33.4135 29.888 33.4135 22.5505 33.4135C22.5505 34.5725 22.5505 35.5619 22.5505 36.8057ZM35.2423 29.3993C35.2423 26.8269 35.2423 24.5371 35.2423 22.2474C33.9958 22.2474 32.9476 22.2474 31.786 22.2474C31.786 24.7067 31.786 26.9965 31.786 29.3993C32.9759 29.3993 34.0524 29.3993 35.2423 29.3993ZM22.6355 14.841C22.6355 16.0848 22.6355 17.159 22.6355 18.2615C23.8537 18.2615 24.8736 18.2615 25.9218 18.2615C25.9218 17.046 25.9218 16 25.9218 14.841C24.7603 14.841 23.7404 14.841 22.6355 14.841ZM44.4495 18.318C44.4495 16.9894 44.4495 15.9718 44.4495 14.841C43.2596 14.841 42.2397 14.841 41.1915 14.841C41.1915 16.0848 41.1915 17.1873 41.1915 18.318C42.3814 18.318 43.3446 18.318 44.4495 18.318Z" fill="#BF9456"/>
<path d="M18.6693 0C28.8397 0 38.4436 0 48.4156 0C48.4156 2.12014 48.5006 4.18375 48.3307 6.21908C48.3023 6.64311 47.3674 7.29329 46.8292 7.29329C37.9619 7.34982 29.123 7.34982 20.2558 7.29329C19.7175 7.29329 18.7543 6.64311 18.726 6.24735C18.5844 4.21201 18.6693 2.14841 18.6693 0Z" fill="#BF9456"/>
<path d="M0.0849938 95.9717C0.0849938 88.4805 0.056664 81.1589 0.113324 73.8657C0.113324 73.3568 0.453281 72.7349 0.849899 72.3957C2.86132 70.6996 4.95772 69.06 7.33743 67.166C7.33743 77.0035 7.33743 86.4169 7.33743 95.9999C5.04271 95.9717 2.748 95.9717 0.0849938 95.9717Z" fill="#BF9456"/>
<path d="M59.7192 76.5229C62.1273 78.4735 64.2803 80.1413 66.3484 81.894C66.6884 82.1767 66.9433 82.742 66.9433 83.1661C67 87.3781 66.9717 91.6184 66.9717 96C64.4503 96 62.1556 96 59.7192 96C59.7192 89.6396 59.7192 83.3074 59.7192 76.5229Z" fill="#BF9456"/>
<path d="M67 61.1731C65.4135 61.1731 64.252 61.06 63.1188 61.2014C61.9856 61.3427 60.8808 61.7102 59.6626 62.0212C59.6626 56.1696 59.6626 50.4593 59.6626 44.7774C64.8186 43.3357 67 44.9187 67 50.0353C67 53.7668 67 57.4982 67 61.1731Z" fill="#BF9456"/>
<path d="M0.0849938 67.7315C0.0849938 64.2262 4.31761e-06 60.9753 0.141653 57.7527C0.169983 57.046 0.793239 56.0283 1.44482 55.7456C3.28626 54.8975 5.92094 55.8304 6.96914 57.47C8.074 59.1944 7.76237 62.0212 6.14757 63.4064C4.50444 64.8198 2.77633 66.1202 1.07654 67.4488C0.906558 67.5619 0.62326 67.5619 0.0849938 67.7315Z" fill="#BF9456"/>
<path d="M66.9717 77.5689C64.5636 75.6467 62.6939 74.2615 60.9374 72.735C59.2943 71.2933 59.011 68.523 60.1442 66.7986C61.2207 65.159 63.8554 64.311 65.7252 65.1308C66.2351 65.3569 66.8867 66.0071 66.8867 66.4876C67 69.9364 66.9717 73.4134 66.9717 77.5689Z" fill="#BF9456"/>
<path d="M7.45075 44.6078C7.45075 47.3216 7.45075 49.8658 7.45075 52.41C5.07104 52.1838 2.77633 51.9577 0.368293 51.7315C-0.934878 45.9082 1.07654 43.7315 7.45075 44.6078Z" fill="#BF9456"/>
<path d="M14.7882 27.1661C12.3801 26.1202 11.3886 24.4806 11.3319 22.2191C11.2753 19.8446 12.3801 18.1202 14.7882 16.9612C14.7882 20.3817 14.7882 23.6326 14.7882 27.1661Z" fill="#BF9456"/>
<path d="M52.1835 27.2226C52.1835 23.6608 52.1835 20.4382 52.1835 17.0177C54.5066 17.9223 55.6114 19.5336 55.7531 21.7385C55.8947 24.1979 54.8748 26.0354 52.1835 27.2226Z" fill="#BF9456"/>
<path d="M35.4973 88.6219C34.0808 88.6219 33.0326 88.6219 31.7294 88.6219C31.7294 82.5724 31.7294 76.636 31.7294 70.4169C29.7746 70.3039 28.0749 70.2191 26.2334 70.106C26.2334 68.947 26.2334 67.9293 26.2334 66.6007C27.9332 66.6007 29.6613 66.6007 31.5028 66.6007C31.5877 64.6219 31.6727 62.9258 31.7577 61.1166C32.9759 61.1166 34.0524 61.1166 35.3273 61.1166C35.4123 62.8692 35.4689 64.5653 35.5539 66.4593C37.3104 66.4593 38.9535 66.4593 40.7949 66.4593C40.7949 67.7314 40.7949 68.8339 40.7949 70.1908C39.0951 70.1908 37.4803 70.1908 35.4973 70.1908C35.4973 76.4664 35.4973 82.4876 35.4973 88.6219Z" fill="#BF9456"/>
<path d="M21.134 81.5831C24.7319 81.2721 26.1484 82.0637 27.3383 84.8622C24.0803 85.258 22.5789 84.4948 21.134 81.5831Z" fill="#BF9456"/>
<path d="M39.6334 84.947C41.1632 81.894 42.5797 81.1873 45.8376 81.6396C44.7328 84.3251 43.203 85.1731 39.6334 84.947Z" fill="#BF9456"/>
</g>
<defs>
<clipPath id="clip0_53_49">
<rect width="67" height="96" fill="white"/>
</clipPath>
</defs>
</svg>
